<svg width="199" height="80" viewBox="0 0 199 80" fill="none" xmlns="http://www.w3.org/2000/svg">
<path d="M76.4201 46.6778H74.96C73.7034 46.6778 72.8887 47.5122 72.8887 48.811V51.9649C70.063 48.0426 65.9378 45.9926 60.8773 45.9926C51.4794 45.9926 44.6575 53.1289 44.6575 62.9633C44.6575 72.7977 51.4794 79.8796 60.8773 79.8796C65.9866 79.8796 70.1089 77.8411 72.8887 73.9647V77.0497C72.8887 78.3858 73.6633 79.1829 74.96 79.1829H76.4201C77.7369 79.1829 78.5545 78.3658 78.5545 77.0497V48.811C78.5545 47.495 77.7311 46.6778 76.4201 46.6778ZM72.9547 62.949C72.9547 69.8703 68.2213 74.7044 61.4482 74.7044C54.8989 74.7044 50.3233 69.8732 50.3233 62.949C50.3233 56.0248 54.8731 51.1334 61.3851 51.1334C68.1955 51.1334 72.9547 55.9932 72.9547 62.949Z" fill="black"/>
<path d="M103.426 46.8182C98.7417 46.8182 94.8202 49.0173 92.812 52.6701V49.651C92.812 48.335 91.9945 47.5178 90.6777 47.5178H89.2061C87.9668 47.5178 87.1348 48.378 87.1348 49.651V77.8668C87.1348 79.1628 87.9467 80 89.2061 80H90.6662C91.983 80 92.8006 79.1828 92.8006 77.8668V64.2363C92.8608 54.5367 99.565 51.9734 103.099 51.9734C105.928 51.9734 110.673 53.2292 110.673 61.6358V77.8668C110.673 79.1828 111.49 80 112.807 80H114.267C115.584 80 116.402 79.1828 116.402 77.8668V61.6358C116.41 48.2633 107.331 46.8182 103.426 46.8182Z" fill="black"/>
<path d="M128.275 47.3745H126.815C126.53 47.3559 126.244 47.3984 125.977 47.499C125.71 47.5997 125.467 47.7562 125.265 47.9581C125.063 48.16 124.906 48.4026 124.805 48.6699C124.705 48.9371 124.662 49.2227 124.681 49.5077V77.7235C124.681 79.0395 125.498 79.8566 126.815 79.8566H128.275C129.532 79.8566 130.347 79.0194 130.347 77.7235V49.5077C130.347 48.2117 129.532 47.3745 128.275 47.3745Z" fill="black"/>
<path d="M158.661 68.2991H156.441C156.257 68.2872 156.073 68.3143 155.901 68.3785C155.729 68.4428 155.573 68.5428 155.442 68.6719C155.306 68.8422 155.209 69.0395 155.155 69.2506C155.102 69.4617 155.094 69.6818 155.132 69.8962V69.965C155.214 70.3048 155.252 70.6535 155.247 71.0029C155.247 73.6034 153.196 74.7675 151.165 74.7675C148.414 74.7675 147.02 72.8809 147.02 69.165V51.3886H155.795C156.696 51.3886 157.229 50.8496 157.229 49.955V48.1143C157.243 47.9226 157.215 47.7304 157.147 47.5505C157.08 47.3706 156.974 47.2072 156.839 47.0714C156.703 46.9356 156.539 46.8304 156.359 46.763C156.179 46.6956 155.987 46.6675 155.795 46.6807H147.031V39.0454C147.031 37.8985 146.285 37.1646 145.086 37.1646H144.26C143.112 37.1646 142.407 37.7896 142.252 38.9336L141.345 46.675H137.401C136.5 46.675 135.966 47.2111 135.966 48.1085V49.9493C135.966 50.8754 136.477 51.3828 137.401 51.3828H141.302V68.841C141.302 72.7691 142.338 75.7022 144.38 77.563C146.05 79.0826 148.336 79.8567 151.176 79.8567C156.828 79.8567 160.48 76.6311 160.48 71.6365C160.471 70.9009 160.382 70.1684 160.216 69.4517C160.064 68.7292 159.473 68.2991 158.661 68.2991Z" fill="black"/>
<path d="M196.356 46.6778H194.896C193.639 46.6778 192.825 47.5122 192.825 48.811V51.9649C189.999 48.0426 185.882 45.9926 180.813 45.9926C171.415 45.9926 164.593 53.1289 164.593 62.9633C164.593 72.7977 171.415 79.8796 180.813 79.8796C185.92 79.8796 190.045 77.8411 192.825 73.9647V77.0497C192.825 78.3858 193.599 79.1829 194.896 79.1829H196.356C197.673 79.1829 198.49 78.3658 198.49 77.0497V48.811C198.505 47.495 197.673 46.6778 196.356 46.6778ZM192.888 62.949C192.888 69.8703 188.157 74.7044 181.384 74.7044C174.832 74.7044 170.259 69.8732 170.259 62.949C170.259 56.0248 174.806 51.1334 181.321 51.1334C188.131 51.1334 192.888 55.9932 192.888 62.949Z" fill="black"/>
<path d="M124.024 39.6618C124.024 37.5687 125.484 36.0463 127.512 36.0463C129.48 36.0463 131.003 37.5687 131.003 39.6618C131.018 40.1268 130.939 40.59 130.769 41.0234C130.6 41.4567 130.344 41.8513 130.018 42.1831C129.691 42.5149 129.301 42.7771 128.87 42.9538C128.44 43.1305 127.978 43.2181 127.512 43.2113C125.484 43.2113 124.024 41.6917 124.024 39.6618Z" fill="#76E5E0"/>
<path d="M51.2011 25.5869C51.2011 20.7042 49.8034 15.9235 47.1729 11.8092C44.5423 7.69486 40.7888 4.41867 36.3556 2.36744C31.9223 0.316208 26.9943 -0.424412 22.1535 0.233013C17.3127 0.890438 12.7612 2.91846 9.03635 6.07764C5.31147 9.23683 2.56878 13.3953 1.13208 18.062C-0.304611 22.7287 -0.375316 27.7088 0.928314 32.4144C2.23194 37.12 4.85548 41.3545 8.48917 44.618C12.1229 47.8816 16.615 50.0379 21.4352 50.8323V56.8161H14.0453C13.0814 56.8161 12.6425 57.3436 12.6425 58.221V61.1598C12.6425 61.5317 12.7903 61.8883 13.0534 62.1512C13.3165 62.4142 13.6733 62.5619 14.0453 62.5619H21.4352V77.6317C21.4352 78.2598 21.6848 78.8622 22.1292 79.3063C22.5736 79.7505 23.1763 80 23.8047 80H25.9936C26.6213 80 27.2232 79.7508 27.6671 79.3072C28.1109 78.8636 28.3603 78.2619 28.3603 77.6346V62.5619H35.6813C36.5591 62.5619 37.0841 62.1232 37.0841 61.1598V58.221C37.0841 57.8489 36.9364 57.492 36.6734 57.2286C36.4104 56.9652 36.0536 56.8168 35.6813 56.8161H28.3603V51.0215C34.6321 50.3348 40.4303 47.3603 44.6446 42.6673C48.859 37.9744 51.1934 31.8928 51.2011 25.5869ZM37.6177 27.6111C37.6177 27.6111 36.4214 27.5939 35.3743 27.5853C28.716 27.5222 21.4352 30.7392 21.4352 44.5016V44.9374C12.7114 43.1598 5.61124 35.189 5.61124 25.5869C5.57955 22.9429 6.07322 20.319 7.06363 17.8672C8.05405 15.4153 9.52151 13.1843 11.381 11.3035C13.2404 9.42264 15.4549 7.92935 17.896 6.91018C20.3372 5.89101 22.9564 5.36622 25.602 5.36622C28.2476 5.36622 30.8668 5.89101 33.3079 6.91018C35.7491 7.92935 37.9636 9.42264 39.823 11.3035C41.6825 13.1843 43.1499 15.4153 44.1404 17.8672C45.1308 20.319 45.6244 22.9429 45.5927 25.5869C45.5927 35.4442 38.0824 43.8364 28.3603 45.184V43.5353C28.3603 36.7 31.3438 33.4572 35.7272 33.4572C36.014 33.4572 36.3382 33.4257 37.6177 33.3827C38.5414 33.354 39.577 32.62 39.577 31.5076V29.598C39.5763 29.0762 39.3706 28.5756 39.0041 28.2039C38.6376 27.8323 38.1397 27.6194 37.6177 27.6111Z" fill="#EF6C7F"/>
</svg>
