<svg width="35" height="36" viewBox="0 0 35 36" fill="none" xmlns="http://www.w3.org/2000/svg">
<g clip-path="url(#clip0)">
<path fill-rule="evenodd" clip-rule="evenodd" d="M0.0249489 17.5077C0.319769 13.4512 4.28108 10.531 8.11556 7.73978C12.6357 4.44945 17.1919 -0.506151 23.2416 0.607609C29.2754 1.71845 30.3899 7.72641 32.477 12.2247C34.1747 15.8838 35.2645 19.5537 33.752 23.2607C31.8476 27.9281 29.4662 33.4247 23.3203 34.6668C17.0748 35.929 11.2544 32.187 6.58856 28.7503C2.53174 25.7621 -0.28873 21.8238 0.0249489 17.5077Z" fill="#ECFAFC"/>
<path d="M26.659 17.2074H23.5441V15.3395C23.5441 14.8894 23.6018 14.6987 23.6762 14.6059C23.7262 14.5435 23.8743 14.4188 24.4188 14.4188C24.9768 14.4188 25.5117 14.4211 25.9072 14.4235C26.1049 14.4246 26.2677 14.4258 26.381 14.4267L26.512 14.4278L26.5463 14.4281L26.555 14.4281L26.5572 14.4282H26.5577H26.5579H26.5579C26.8473 14.4308 27.0855 14.2009 27.0929 13.9116L27.172 10.8447C27.179 10.5725 26.9788 10.3392 26.7087 10.3049L26.6419 10.831C26.7087 10.3049 26.7086 10.3049 26.7086 10.3049H26.7085L26.7081 10.3049L26.7072 10.3048L26.7043 10.3044L26.6942 10.3032L26.657 10.2988C26.6248 10.295 26.5782 10.2898 26.5182 10.2836C26.3983 10.2712 26.2253 10.2548 26.0094 10.2384C25.5778 10.2058 24.973 10.1731 24.2771 10.1731C22.4892 10.1731 21.1397 10.7146 20.236 11.6154C19.3356 12.513 18.9316 13.7139 18.9316 14.9318V17.2074H16.995C16.7021 17.2074 16.4647 17.4448 16.4647 17.7377V21.0218C16.4647 21.3147 16.7021 21.5521 16.995 21.5521H18.9316V29.6134H11.2513C9.1191 29.6134 7.42426 27.9393 7.42426 25.8832V11.0709C7.42426 9.01481 9.1191 7.3407 11.2513 7.3407H26.4002C28.5324 7.3407 30.2273 9.01487 30.2273 11.071V25.8832C30.2273 27.9393 28.5324 29.6134 26.4002 29.6134H23.5441V21.5522H26.5002C26.7831 21.5522 27.0162 21.3301 27.0299 21.0475L27.1887 17.7633C27.1957 17.6184 27.143 17.4769 27.0429 17.3719C26.9429 17.2669 26.8041 17.2074 26.659 17.2074Z" stroke="black" stroke-width="1.3" stroke-linecap="round" stroke-linejoin="round"/>
</g>
<defs>
<clipPath id="clip0">
<rect width="35" height="35" fill="white" transform="translate(0 0.446777)"/>
</clipPath>
</defs>
</svg>
