<svg width="35" height="36" viewBox="0 0 35 36" fill="none" xmlns="http://www.w3.org/2000/svg">
<g clip-path="url(#clip0)">
<path fill-rule="evenodd" clip-rule="evenodd" d="M16.5026 0.559461C22.0291 -0.184381 27.5001 2.83087 30.988 7.34619C34.4885 11.8779 36.0273 18.044 34.2694 23.56C32.6597 28.6105 27.5278 30.8819 22.8199 32.9755C18.4732 34.9085 13.801 36.4777 9.42932 34.6063C4.76324 32.6089 0.810062 28.4291 0.0801979 23.2413C-0.603189 18.3838 3.22558 14.6237 6.06604 10.7005C9.07857 6.53979 11.5326 1.2284 16.5026 0.559461Z" fill="#DAF4F8"/>
<path d="M23.5341 6.44678H12.4659C8.89455 6.44678 6 9.34184 6 12.9127V23.9809C6 27.5522 8.89507 30.4468 12.4664 30.4468H23.5336C27.1049 30.4468 30 27.5517 30 23.9803V12.9127C30 9.34133 27.1049 6.44678 23.5336 6.44678H23.5341Z" stroke="black" stroke-width="1.3" stroke-miterlimit="10"/>
<path d="M18 23.4468C20.7614 23.4468 23 21.2082 23 18.4468C23 15.6854 20.7614 13.4468 18 13.4468C15.2386 13.4468 13 15.6854 13 18.4468C13 21.2082 15.2386 23.4468 18 23.4468Z" stroke="black" stroke-width="1.3" stroke-miterlimit="10"/>
<path d="M26.5 11.4468C26.5 12.2752 25.8284 12.9468 25 12.9468C24.1716 12.9468 23.5 12.2752 23.5 11.4468C23.5 10.6184 24.1716 9.94678 25 9.94678C25.8284 9.94678 26.5 10.6184 26.5 11.4468Z" stroke="black"/>
</g>
<defs>
<clipPath id="clip0">
<rect width="35" height="35" fill="white" transform="translate(0 0.446777)"/>
</clipPath>
</defs>
</svg>
