<svg xmlns="http://www.w3.org/2000/svg" width="200" height="200" fill="none" viewBox="0 0 200 200">
    <path fill="#DAF4F8" fill-rule="evenodd" d="M96.585 168.151c-16.76.305-32.978-4.449-46.344-15.648-14.7-12.316-28.653-28.214-30.024-48.335-1.388-20.372 3.702-40.925 15.857-56.3 12.517-15.832 33.728-32.064 52.922-30.696 18.661 1.329 34.836 17.105 48.908 30.696 14.425 13.931 29.967 28.048 33.312 48.71 3.434 21.214-12.474 40.098-27.197 54.218-13.009 12.475-30.059 17.039-47.434 17.355z" clip-rule="evenodd"/>
    <path fill="#ECFAFC" fill-rule="evenodd" d="M40.967 104.928c1.637-15.3 7.82-29.528 19.547-40.423C73.41 52.523 89.484 41.63 107.967 42.68c18.714 1.063 33.004 14.283 45.62 27.11 12.99 13.21 29.199 28.146 25.761 45.472-3.342 16.845-27.096 20.481-41.082 31.746-14.336 11.546-21.432 33.385-40.634 34.071-19.714.705-35.097-15.942-46.275-30.965-9.877-13.273-12.086-29.325-10.39-45.186z" clip-rule="evenodd"/>
    <path fill="#000" fill-rule="evenodd" d="M69.063 63.9c-2.061 0-3.732 1.675-3.732 3.741v66.273c0 2.066 1.67 3.741 3.732 3.741h49.046c2.061 0 3.732-1.675 3.732-3.741V93.295c0-1.475 1.193-2.672 2.665-2.672s2.666 1.197 2.666 2.672v40.619c0 5.018-4.058 9.086-9.063 9.086H69.063c-5.005 0-9.063-4.068-9.063-9.086V67.641c0-5.018 4.058-9.086 9.063-9.086h47.98c1.472 0 2.665 1.197 2.665 2.673s-1.193 2.672-2.665 2.672h-47.98z" clip-rule="evenodd"/>
    <path fill="#000" fill-rule="evenodd" d="M87.893 53.118c-1.221 0-2.366.57-3.066 1.528l-5.57 7.616c-.846 1.158-2.513 1.44-3.722.629-1.21-.81-1.504-2.406-.657-3.564l5.57-7.616c1.7-2.326 4.48-3.711 7.445-3.711H98.32c2.966 0 5.745 1.385 7.446 3.711l5.569 7.616c.847 1.158.553 2.753-.657 3.564-1.209.81-2.876.529-3.722-.63l-5.57-7.615c-.7-.958-1.844-1.528-3.066-1.528H87.893zM74.394 82.545c0-1.59 1.228-2.878 2.742-2.878h17.547c1.514 0 2.742 1.288 2.742 2.878s-1.228 2.88-2.742 2.88H77.136c-1.514 0-2.742-1.29-2.742-2.88zM74.394 99.818c0-1.59 1.197-2.879 2.674-2.879h32.078c1.476 0 2.673 1.29 2.673 2.88 0 1.589-1.197 2.878-2.673 2.878H77.068c-1.477 0-2.674-1.289-2.674-2.879zM74.394 119.01c0-1.59 1.197-2.879 2.674-2.879h32.078c1.476 0 2.673 1.289 2.673 2.879s-1.197 2.879-2.673 2.879H77.068c-1.477 0-2.674-1.289-2.674-2.879zM132.61 58.952c1.27.768 1.66 2.39.87 3.624L115.97 89.94c-.468.73-1.273 1.193-2.157 1.238-.885.046-1.736-.332-2.28-1.01l-10.658-13.291c-.92-1.147-.708-2.8.472-3.693 1.18-.893 2.882-.688 3.801.459l8.272 10.314 15.459-24.159c.79-1.234 2.46-1.613 3.731-.846z" clip-rule="evenodd"/>
</svg>
