<svg width="35" height="36" viewBox="0 0 35 36" fill="none" xmlns="http://www.w3.org/2000/svg">
<g clip-path="url(#clip0)">
<path fill-rule="evenodd" clip-rule="evenodd" d="M20.8706 0.452847C26.0285 0.650569 28.8305 5.64038 31.6307 9.58156C33.9639 12.8654 35.1914 16.401 34.9757 20.3048C34.6786 25.6795 35.6558 32.8853 30.2243 35.0297C24.802 37.1706 20.4841 30.4904 15.1779 28.1213C9.97651 25.7989 1.89643 26.7064 0.264317 21.6532C-1.38119 16.5586 5.04045 12.69 8.90842 8.71049C12.396 5.12235 15.607 0.251074 20.8706 0.452847Z" fill="#ECFAFC"/>
<path d="M32.8461 10.3737C31.9353 10.7773 30.9567 11.05 29.9281 11.1733C30.9895 10.5382 31.7836 9.53857 32.1622 8.36106C31.165 8.95337 30.0736 9.3703 28.9354 9.59371C28.17 8.77654 27.1563 8.23485 26.0515 8.05285C24.9468 7.87085 23.8128 8.05866 22.8257 8.58711C21.8386 9.11561 21.0536 9.95518 20.5926 10.9755C20.1316 11.9958 20.0203 13.1399 20.2761 14.2299C18.2555 14.1285 16.2788 13.6033 14.4742 12.6884C12.6697 11.7736 11.0777 10.4895 9.80156 8.91956C9.36524 9.67227 9.11432 10.545 9.11432 11.4744C9.11383 12.3111 9.3199 13.135 9.71417 13.8729C10.1085 14.6109 10.6788 15.2401 11.3746 15.7048C10.5677 15.6791 9.77851 15.4611 9.07286 15.0688V15.1342C9.0728 16.3077 9.4787 17.4451 10.2218 18.3534C10.9648 19.2617 11.9992 19.8849 13.1494 20.1173C12.4009 20.3199 11.6161 20.3497 10.8543 20.2046C11.1788 21.2143 11.8109 22.0973 12.6622 22.7299C13.5135 23.3624 14.5413 23.713 15.6017 23.7325C13.8016 25.1456 11.5785 25.9121 9.28997 25.9087C8.88456 25.9088 8.47953 25.8852 8.07692 25.8378C10.3999 27.3314 13.104 28.1241 15.8657 28.121C25.2144 28.121 30.3252 20.378 30.3252 13.6626C30.3252 13.4445 30.3197 13.2241 30.3099 13.0059C31.304 12.287 32.1621 11.3968 32.844 10.377L32.8461 10.3737Z" stroke="black" stroke-width="1.3" stroke-linecap="round" stroke-linejoin="round"/>
</g>
<defs>
<clipPath id="clip0">
<rect width="35" height="35" fill="white" transform="translate(0 0.446777)"/>
</clipPath>
</defs>
</svg>
