<svg xmlns="http://www.w3.org/2000/svg" width="200" height="200" fill="none" viewBox="0 0 200 200">
    <g fill-rule="evenodd" clip-path="url(#clip0)" clip-rule="evenodd">
        <path fill="#DAF4F8" d="M162.038 157.804c-14.396 14.869-36.492 19.785-59.689 14.663-25.536-5.639-54.795-17.677-67.635-42.778-12.249-23.948 3.029-45.182 12.157-65.683C54.357 47.194 63.56 32.124 80.84 26.101c21.279-7.416 47.35-15.017 68.766 2.1 21.339 17.058 20.849 46.452 23.247 71.448 2.111 22.002 2.577 44.324-10.814 58.155z"/>
        <path fill="#ECFAFC" d="M149.779 52.577c16.113 17.131 20.081 41.125 17.185 61.588-2.628 18.572-14.858 32.204-31.391 38.798-15.094 6.022-32.863.888-50.091-6.295-19.696-8.21-44.486-15.713-51.409-36.019-6.842-20.069 12.364-32.546 23.05-47.162 9.442-12.912 16.882-28.381 33.627-30.353 19.87-2.34 43.216 2.63 59.029 19.443z"/>
        <path fill="#000" d="M137.637 67.745c1.435.933 1.843 2.853.91 4.288l-26.858 41.328c-.54.831-1.444 1.354-2.433 1.407-.989.053-1.944-.37-2.57-1.138L90.338 93.556c-1.081-1.327-.881-3.28.446-4.36 1.327-1.082 3.28-.882 4.36.445l13.664 16.777 24.541-37.763c.933-1.435 2.853-1.842 4.288-.91z"/>
        <path fill="#000" d="M107.169 71.395c-15.968-.55-29.358 11.95-29.907 27.917-.55 15.968 11.95 29.358 27.917 29.908 15.968.549 29.358-11.95 29.908-27.918.112-3.269-.321-6.423-1.216-9.38-.496-1.638.431-3.368 2.069-3.864 1.639-.496 3.369.43 3.865 2.068 1.089 3.6 1.614 7.432 1.477 11.389-.667 19.39-16.926 34.568-36.316 33.9-19.39-.667-34.567-16.926-33.9-36.316.668-19.39 16.927-34.567 36.316-33.9 5.252.18 10.203 1.508 14.614 3.735 1.528.772 2.141 2.636 1.369 4.164-.772 1.528-2.636 2.142-4.164 1.37-3.625-1.83-7.696-2.924-12.032-3.073z"/>
    </g>
    <defs>
        <clipPath id="clip0">
            <path fill="#fff" d="M0 0H200V200H0z"/>
        </clipPath>
    </defs>
</svg>
