<svg width="35" height="36" viewBox="0 0 35 36" fill="none" xmlns="http://www.w3.org/2000/svg">
<g clip-path="url(#clip0)">
<path fill-rule="evenodd" clip-rule="evenodd" d="M15.6802 0.506617C20.7717 0.967385 23.2786 5.59612 26.5864 9.02775C30.115 12.6884 35.2254 15.7486 34.9923 20.5412C34.7167 26.2076 31.2091 31.9277 25.3562 34.3207C19.5659 36.688 12.5879 35.0667 7.3661 31.8362C3.00318 29.1371 2.50678 24.1176 1.43931 19.5244C0.420077 15.1386 -1.26158 10.5006 1.53866 6.76099C4.59026 2.68579 10.1571 0.00678989 15.6802 0.506617Z" fill="#DAF4F8"/>
<path d="M30.0536 12.0062C29.9003 11.4362 29.5998 10.9163 29.1822 10.4987C28.7645 10.081 28.2443 9.78024 27.6737 9.62646C25.5734 9.06226 17.1539 9.06226 17.1539 9.06226C17.1539 9.06226 8.73443 9.06226 6.63411 9.62344C6.06324 9.77674 5.54282 10.0773 5.12509 10.495C4.70737 10.9128 4.40705 11.4329 4.25428 12.0032C3.69238 14.1039 3.69238 18.4853 3.69238 18.4853C3.69238 18.4853 3.69238 22.8667 4.25428 24.9644C4.56378 26.1228 5.47724 27.0351 6.63411 27.3442C8.73443 27.9084 17.1539 27.9084 17.1539 27.9084C17.1539 27.9084 25.5734 27.9084 27.6737 27.3442C28.8336 27.0351 29.7441 26.1228 30.0536 24.9644C30.6155 22.8667 30.6155 18.4853 30.6155 18.4853C30.6155 18.4853 30.6155 14.1039 30.0536 12.0062ZM14.4797 22.5067V14.464L21.4508 18.4553L14.4797 22.5067Z" stroke="black" stroke-width="1.3"/>
</g>
<defs>
<clipPath id="clip0">
<rect width="35" height="35" fill="white" transform="translate(0 0.446777)"/>
</clipPath>
</defs>
</svg>
