<svg width="21" height="36" viewBox="0 0 21 36" fill="none" xmlns="http://www.w3.org/2000/svg">
<path d="M0.402344 17.8984C0.402344 18.582 0.65625 19.168 1.20312 19.6758L16.3984 34.5586C16.8281 34.9883 17.375 35.2227 18.0195 35.2227C19.3086 35.2227 20.3438 34.207 20.3438 32.8984C20.3438 32.2539 20.0703 31.6875 19.6406 31.2383L5.94922 17.8984L19.6406 4.55859C20.0703 4.10938 20.3438 3.52344 20.3438 2.89844C20.3438 1.58984 19.3086 0.574219 18.0195 0.574219C17.375 0.574219 16.8281 0.808594 16.3984 1.23828L1.20312 16.1016C0.65625 16.6289 0.402344 17.2148 0.402344 17.8984Z" fill="black"/>
</svg>
