<svg width="1440" height="611" viewBox="0 0 1440 611" fill="none" xmlns="http://www.w3.org/2000/svg">
<mask id="mask0" mask-type="alpha" maskUnits="userSpaceOnUse" x="0" y="0" width="1440" height="611">
<rect width="1440" height="610.325" fill="#C4C4C4"/>
</mask>
<g mask="url(#mask0)">
<path fill-rule="evenodd" clip-rule="evenodd" d="M983.275 -1190.07C1308.7 -1201.63 1657.06 -1171.15 1873.54 -950.834C2101.6 -718.734 2285.75 76.2932 1959.53 128.035C1633.31 179.777 1595.88 606.256 1156.12 606.256C716.362 606.256 694.554 236.223 416.919 146.85C139.283 57.478 -17.2816 194.017 -97.1763 -84.6702C-179.224 -370.866 -39.9342 -669.14 176.485 -890.557C379.154 -1097.91 677.713 -1179.22 983.275 -1190.07Z" fill="#F1FCFC"/>
</g>
<path d="M1296.5 565.059C1338 547.767 1427.5 495.38 1440 477.071V540.138C1421.5 552.344 1395 565.059 1360 578.283C1259.3 616.329 1147 613.885 1100 606.765C1175.5 600.153 1243.94 586.96 1296.5 565.059Z" fill="#F498A5"/>
<path d="M912.5 556.413C833 524.806 714.286 433.778 657 283.292C560 28.4818 196.27 178.408 0 62.0497V108.497C28.5 121.556 102.5 137.398 257.28 137.398C443 137.398 574 209.036 623 311.774C676.66 424.282 748.5 510.13 912.5 556.413Z" fill="#F498A5"/>
</svg>
