<svg width="100%" height="700" viewBox="0 0 414 265" fill="none" xmlns="http://www.w3.org/2000/svg">
<mask id="mask0" mask-type="alpha" maskUnits="userSpaceOnUse" x="0" y="0" width="414" height="262">
<rect width="414" height="262" fill="#C4C4C4"/>
</mask>
<g mask="url(#mask0)">
<path fill-rule="evenodd" clip-rule="evenodd" d="M162.194 -311.332C255.964 -315.018 356.343 -305.296 418.721 -235.041C484.438 -161.026 537.5 92.5 443.5 109C349.5 125.5 325 256.5 212 261.5C99 266.5 79 143.5 -1 115C-81 86.5 -126.114 130.041 -149.135 41.1703C-172.777 -50.0949 -132.641 -145.211 -70.2806 -215.819C-11.882 -281.941 74.1471 -307.871 162.194 -311.332Z" fill="#F1FCFC"/>
</g>
<path d="M88.5 215C59.7 171.8 17.5 152.333 0 148V115C9.5 118.167 49.5088 124.515 88.5 190C127.5 255.5 191.5 265.167 213 261.5C182 270.5 117.3 258.2 88.5 215Z" fill="#F498A5"/>
<path d="M333.5 192.5C361.5 155.3 392.5 120 414.5 120V167C398.5 160 376.2 173.2 351 200C325.8 226.8 287 250.5 243.5 257C259 251.833 305.5 229.7 333.5 192.5Z" fill="#F498A5"/>
</svg>
