<svg xmlns="http://www.w3.org/2000/svg" width="100" height="100" fill="none" viewBox="0 0 100 100">
    <path fill="#FDF0F2" fill-rule="evenodd" d="M46.996 14.813c7.647 1.47 13.313 6.591 19.15 11.735 6.453 5.688 14.072 10.696 15.84 19.104 2.123 10.101 1.223 21.552-5.679 29.241-7.141 7.957-18.716 11.277-29.311 9.742-9.543-1.383-15.391-10.04-21.876-17.16-6.007-6.594-12.498-12.985-13.631-21.823-1.284-10.012-.416-21.597 7.215-28.225 7.426-6.449 18.624-4.473 28.292-2.614z" clip-rule="evenodd"/>
    <path fill="#000" fill-rule="evenodd" d="M58.786 28.515c.363.091.663.166.885.216.064.015.127.035.187.062 3.127 1.392 5.296 3.177 6.609 5.266 1.318 2.098 1.72 4.419 1.456 6.774-.522 4.651-3.645 9.48-7.544 13.429-1.708 1.73-2.66 4.046-3.706 6.593l-.282.685c-1.13 2.729-2.445 5.653-5.11 7.64-3.384 2.526-8.68 3.911-12.935 1.757-1.177-.595-2.294-1.868-3.3-3.313-1.033-1.482-2.046-3.292-2.978-5.136-1.68-3.326-3.136-6.845-3.984-8.895l-.255-.615c-.834-2.005-.955-4.448-.729-6.748.228-2.315.817-4.59 1.502-6.323 2.146-5.433 8.071-10.416 15.396-12.35 3.076-.813 6.512-.613 9.38-.178 2.21.335 4.178.828 5.408 1.136zm-5.707.842c-2.769-.42-5.886-.576-8.57.133-6.842 1.807-12.18 6.426-14.047 11.151-.618 1.565-1.163 3.659-1.371 5.785-.21 2.14-.07 4.21.585 5.785l.256.618c.85 2.054 2.277 5.504 3.921 8.757.912 1.805 1.878 3.522 2.834 4.895.981 1.41 1.86 2.317 2.563 2.672 3.358 1.7 7.835.663 10.835-1.575 2.174-1.623 3.32-4.053 4.458-6.803.1-.24.199-.483.3-.728 1.012-2.475 2.111-5.163 4.113-7.19 3.768-3.816 6.53-8.247 6.98-12.248.221-1.97-.119-3.824-1.163-5.486-1.039-1.653-2.826-3.196-5.64-4.463-.254-.059-.558-.135-.909-.223-1.238-.31-3.046-.762-5.145-1.08z" clip-rule="evenodd"/>
    <path fill="#EF6C7F" d="M34.043 54.26c.442-2.573.815-3.626 4.016-3.148 3.812 0 4.167 5.994-.41 5.887-2.07-.05-3.96-.673-3.606-2.74z"/>
    <path fill="#F8B7BF" d="M44.403 48.083c-1.173-1.302-2.44-3.781-.045-5.914 4.635-1.28 5.742 5.095 3.576 6.551-.93.625-2.857.111-3.531-.637zM52.935 35.476c-.782-.744-1.626-2.16-.03-3.38 3.09-.731 3.828 2.912 2.384 3.744-.62.357-1.904.063-2.354-.364z"/>
    <path fill="#EF6C7F" d="M44.216 37.474c-1.988-1.576-1.306-4.067.379-4.401 2.86-.568 4.499 2.318 2.567 4.401-.73.789-2.18.608-2.946 0zM53.216 51.474c-1.988-1.576-1.306-4.067.379-4.401 2.86-.568 4.499 2.318 2.567 4.401-.73.789-2.18.608-2.946 0zM33.221 42.744c2.17 2.116 6.493 1.589 5.678-1.811-.869-3.624-7.145-1.653-5.678 1.81zM39.184 63.995c1.809 1.693 5.411 1.271 4.732-1.449-.724-2.899-5.954-1.322-4.731 1.45z"/>
    <path fill="#F8B7BF" d="M56.708 42.421C55.615 40.94 55.48 38 58.56 38c2.451 0 3.042 3.085 1.837 4.421-.712.79-3.13.755-3.688 0zM46.84 59.828c-2.837-.647-2.038-5.526 0-5.526 4.937-1.436 4.537 2.624 3.524 4.309-.457.759-2.78 1.805-3.524 1.217z"/>
    <path fill="#000" fill-rule="evenodd" d="M38.55 18.745c2.07-1.183 3.835-1.635 6.378-1.534 1.08.044 1.876.692 2.419 1.227.222.219.438.457.624.663l.132.144c.2.22.361.387.503.51.024.004.06.01.114.016.168.018.395.018.669.004.251-.013.51-.036.764-.058l.056-.005c.25-.022.535-.047.755-.047.716 0 1.413.169 2.005.329l.388.106c.46.127.853.236 1.245.297 2.796.43 5.917 2.242 8.017 3.642.655.436.992.635 1.284.744.256.096.523.14 1.063.14.125 0 .287-.012.52-.028.215-.015.477-.034.74-.037.262-.003.562.008.857.064.29.055.641.165.95.406.963.748 1.591 1.488 1.942 2.415.334.887.373 1.849.373 2.912 0 .479.22.746.767 1.307l.04.042c.513.524 1.296 1.325 1.296 2.682V42.585l.002.032c.002.027.004.062.009.105.008.086.02.194.037.316.034.245.083.532.142.803.032.148.064.28.096.393l.137.011c.236.023.532.066.822.176.303.114.632.315.876.668.242.351.333.757.333 1.165 0 .925-.03 2.105-.473 3.06-.235.508-.598.978-1.144 1.313-.54.33-1.186.483-1.915.483-.775 0-1.563.025-2.192.223-.582.183-.877.458-.98.922-.152.686-.553 1.364-.898 1.898-.16.248-.306.463-.44.659-.195.288-.362.533-.503.78-.202.352-.534 1.017-.813 1.696-.14.338-.259.665-.342.948-.02.065-.035.124-.049.178.04.013.086.028.138.047.243.084.64.235.97.554.373.36.579.85.579 1.435 0 .146.014.335.034.598l.002.017c.019.242.042.53.048.82.007.294-.002.626-.059.95-.056.32-.172.7-.43 1.034-.48.616-1.054.944-1.687 1.047-.555.09-1.095-.007-1.46-.074l-.021-.004c-.427-.077-.677-.12-.907-.1-.17.016-.34.07-.546.275-1.856 1.856-3.992 4.561-4.763 6.873l-.008.027.02.03c.028.04.069.089.134.162l.067.073c.256.274.812.868.812 1.768 0 .45-.004 1.147-.143 1.816-.133.643-.435 1.491-1.216 1.988-.835.531-1.652.656-2.426.46-.707-.178-1.278-.605-1.689-.93-.105-.083-.2-.16-.286-.23-.307-.247-.512-.412-.728-.52-.186-.094-.248-.081-.354-.025-1.22.646-2.36 1.012-3.566 1.137-.84.086-1.687.052-2.584-.066-.438.004-.974.05-1.596.114l-.468.05c-.512.053-1.06.111-1.603.153-1.37.105-2.987.14-4.19-.407-.057-.027-.234-.053-.726.035l-.268.052c-.374.075-.883.177-1.319.177-.643 0-1.261-.021-1.851-.205-.626-.194-1.142-.543-1.66-1.061-.66-.66-1.286-1.392-1.524-2.309-.252-.971-.023-1.944.553-2.984.005-.022.017-.134-.097-.41-.146-.355-.426-.79-.804-1.284-.344-.45-.73-.898-1.103-1.331l-.09-.105c-.378-.44-.777-.904-1.022-1.286-1.348-2.096-2.199-4.569-2.408-7.092-.148-.036-.33-.07-.558-.11l-.096-.016c-.216-.038-.462-.08-.708-.133-.547-.115-1.242-.304-1.81-.714-.632-.456-1.064-1.157-1.064-2.116 0-1.5.437-2.622 1.1-3.815.184-.332.442-.57.617-.721.059-.052.128-.109.184-.155l.022-.018c-.292-.437-.44-.95-.524-1.42-.098-.547-.123-1.14-.12-1.703.002-.565.035-1.132.065-1.627l.007-.116c.028-.459.051-.83.051-1.116 0-2.209.941-4.618 2.198-6.383l-.1-.048-.173-.08c-.268-.123-.623-.286-.912-.468-.338-.213-.894-.634-1.002-1.365-.061-.411-.114-.955-.05-1.497.061-.534.252-1.199.798-1.69.472-.426 1.12-.587 1.619-.67.535-.088 1.128-.116 1.639-.138l.136-.005c.48-.02.872-.036 1.177-.08.074-.01.132-.02.176-.03.555-.905 1.37-1.817 2.197-2.632.897-.884 1.86-1.704 2.635-2.338.565-.463 1.123-.942 1.687-1.425 1.34-1.149 2.709-2.323 4.272-3.366l.119-.08c-.103-.142-.223-.319-.34-.53-.156-.28-.238-.658-.286-.939-.056-.325-.096-.702-.11-1.071-.012-.362-.002-.759.06-1.11.03-.175.08-.377.168-.57.082-.18.245-.461.565-.643zm6.725 56.838c-.308-.043-.632-.098-.974-.165-.337-.065-.668.046-.895.27l-.119.013-.494.051c-.506.054-1.015.107-1.526.147-1.407.108-2.532.074-3.21-.234-.683-.311-1.436-.197-1.905-.113-.183.033-.339.064-.477.091-.316.063-.538.107-.758.107-.635 0-.983-.03-1.257-.115-.24-.074-.486-.212-.84-.565-.63-.63-.909-1.038-1.002-1.397-.078-.302-.064-.737.37-1.52.418-.75.238-1.554 0-2.133-.248-.602-.656-1.204-1.065-1.739-.382-.498-.805-.989-1.171-1.414l-.096-.111c-.41-.477-.702-.825-.855-1.062-1.235-1.922-1.993-4.215-2.121-6.526-.03-.533-.346-.886-.639-1.082-.263-.176-.563-.27-.791-.33-.242-.062-.51-.11-.752-.153l-.101-.017c-.218-.038-.426-.074-.633-.118-.498-.106-.843-.228-1.055-.38-.148-.107-.234-.222-.234-.494 0-1.04.28-1.822.848-2.844.007-.012.041-.063.176-.179l.084-.07c.114-.095.295-.244.418-.369.185-.186.471-.526.523-1.026.054-.52-.168-.96-.438-1.297-.074-.092-.173-.301-.243-.694-.067-.378-.092-.836-.09-1.342.003-.503.032-1.02.062-1.517l.008-.132c.027-.435.054-.87.054-1.22 0-1.835.872-4.01 2.048-5.521.192-.246.365-.574.377-.971.012-.416-.157-.749-.35-.981-.323-.39-.833-.63-1.123-.768l-.264-.122c-.25-.116-.442-.204-.608-.31-.05-.03-.083-.055-.106-.073-.04-.307-.057-.609-.027-.865.034-.295.114-.402.15-.435.004-.003.042-.032.148-.07.11-.041.262-.08.458-.112.398-.066.875-.091 1.398-.113l.152-.007c.451-.018.946-.038 1.356-.096.23-.032.49-.083.73-.178.225-.088.572-.268.787-.645.417-.73 1.136-1.562 1.98-2.395.835-.823 1.744-1.598 2.498-2.215.643-.526 1.242-1.04 1.826-1.541 1.295-1.112 2.517-2.16 3.977-3.134.337-.225.656-.46.875-.725.119-.143.242-.335.306-.577.068-.257.052-.502-.01-.717-.091-.312-.301-.582-.395-.704l-.023-.029c-.117-.154-.222-.292-.324-.47-.003-.01-.009-.027-.016-.055-.019-.066-.04-.159-.06-.276-.04-.233-.07-.52-.08-.803-.01-.264 0-.489.023-.648 1.634-.895 2.998-1.22 5.068-1.138.297.012.629.192 1.095.652.178.175.345.36.527.56l.156.172c.23.252.5.54.792.773.361.289.813.364 1.092.393.322.034.67.029.981.013.291-.015.585-.041.833-.064l.061-.005c.282-.025.467-.04.58-.04.428 0 .904.104 1.483.26l.318.088c.47.131 1.01.281 1.532.361 2.323.358 5.123 1.937 7.212 3.33.637.425 1.154.752 1.692.953.574.215 1.112.267 1.764.267.2 0 .427-.017.624-.03l.036-.003c.222-.016.427-.03.623-.032.198-.002.35.008.463.03.064.012.096.024.106.028.776.606 1.11 1.067 1.285 1.534.193.51.245 1.137.245 2.205 0 1.34.779 2.136 1.286 2.654l.05.05c.541.555.767.831.767 1.327v7.887c0 .337.1 1.07.235 1.69.069.318.158.663.27.95.054.137.133.313.248.473.082.112.366.484.89.514l.225.012c.133.007.245.013.364.024.099.01.17.02.222.032 0 .965-.056 1.708-.287 2.204-.101.219-.224.357-.374.45-.156.095-.418.188-.87.188-.754 0-1.834.013-2.794.316-1.008.317-2.023 1.006-2.331 2.395-.067.303-.283.716-.626 1.246-.1.156-.22.332-.344.516-.233.345-.483.715-.655 1.016-.249.435-.618 1.177-.927 1.929-.155.377-.301.772-.41 1.143-.105.353-.197.756-.197 1.124 0 .307.095.597.279.839.169.222.376.356.53.437.205.107.495.2.653.25l.086.029c.11.038.172.067.204.084v.016c0 .235.022.503.04.737l.002.018c.02.256.038.495.044.726.005.232-.005.417-.03.556-.02.111-.042.154-.044.16-.186.236-.32.278-.426.295-.173.028-.389.003-.801-.072l-.075-.013c-.35-.065-.853-.157-1.37-.11-.614.056-1.226.3-1.779.852-1.918 1.919-4.325 4.892-5.246 7.655-.161.482-.15.942.013 1.363.146.376.391.655.54.821.37.414.37.435.37.506v.002c0 .457-.01.965-.102 1.41-.098.473-.244.65-.332.707-.417.265-.673.256-.862.209-.256-.065-.536-.242-.937-.56l-.186-.15c-.321-.261-.744-.605-1.174-.82-.61-.307-1.372-.436-2.186-.005-1.029.545-1.922.821-2.835.915-.663.068-1.362.043-2.164-.066l-.027-.003zm27.623-29.41l.001.001z" clip-rule="evenodd"/>
</svg>
