<svg width="24" height="36" viewBox="0 0 24 36" fill="none" xmlns="http://www.w3.org/2000/svg">
<path d="M23.3514 11.5141C23.3514 9.31691 22.7139 7.16559 21.5142 5.31414C20.3145 3.46269 18.6026 1.9884 16.5807 1.06535C14.5588 0.142294 12.3113 -0.190986 10.1036 0.104856C7.89584 0.400697 5.82003 1.31331 4.12122 2.73494C2.42241 4.15657 1.17155 6.02786 0.516311 8.12788C-0.138924 10.2279 -0.171171 12.469 0.423378 14.5865C1.01793 16.704 2.21444 18.6095 3.87167 20.0781C5.52889 21.5467 7.57761 22.517 9.77596 22.8745V25.5672H6.40566C5.96606 25.5672 5.76588 25.8046 5.76588 26.1994V27.5219C5.76588 27.6893 5.83329 27.8497 5.95327 27.9681C6.07325 28.0864 6.23598 28.1528 6.40566 28.1528H9.77596V34.9343C9.77596 35.2169 9.88982 35.488 10.0925 35.6879C10.2952 35.8877 10.57 36 10.8567 36H11.8549C12.1412 36 12.4157 35.8879 12.6182 35.6882C12.8206 35.4886 12.9343 35.2179 12.9343 34.9356V28.1528H16.2732C16.6736 28.1528 16.913 27.9554 16.913 27.5219V26.1994C16.913 26.032 16.8456 25.8714 16.7257 25.7529C16.6057 25.6343 16.443 25.5676 16.2732 25.5672H12.9343V22.9597C15.7947 22.6507 18.4391 21.3121 20.3611 19.2003C22.2832 17.0885 23.3479 14.3518 23.3514 11.5141ZM17.1563 12.425C17.1563 12.425 16.6108 12.4172 16.1332 12.4134C13.0965 12.385 9.77596 13.8326 9.77596 20.0257V20.2218C5.79728 19.4219 2.55913 15.8351 2.55913 11.5141C2.54467 10.3243 2.76982 9.14355 3.22152 8.04022C3.67322 6.93689 4.34248 5.93295 5.19053 5.08657C6.03858 4.24019 7.04853 3.56821 8.16187 3.10958C9.2752 2.65095 10.4698 2.4148 11.6763 2.4148C12.8829 2.4148 14.0775 2.65095 15.1908 3.10958C16.3041 3.56821 17.3141 4.24019 18.1621 5.08657C19.0102 5.93295 19.6794 6.93689 20.1311 8.04022C20.5828 9.14355 20.808 10.3243 20.7935 11.5141C20.7935 15.9499 17.3683 19.7264 12.9343 20.3328V19.5909C12.9343 16.515 14.295 15.0558 16.2941 15.0558C16.425 15.0558 16.5728 15.0416 17.1563 15.0222C17.5776 15.0093 18.0499 14.679 18.0499 14.1784V13.3191C18.0496 13.0843 17.9558 12.859 17.7886 12.6918C17.6215 12.5245 17.3944 12.4287 17.1563 12.425Z" fill="#EF6C7F"/>
</svg>
