<svg xmlns="http://www.w3.org/2000/svg" width="100" height="100" fill="none" viewBox="0 0 100 100">
    <path fill="#FDF0F2" fill-rule="evenodd" d="M53.925 8.09c9.692.757 17.628 7.676 24.485 15.476 6.841 7.782 12.934 16.788 13.52 27.755.62 11.575-2.908 23.39-10.357 31.34-7.271 7.76-17.679 9.897-27.648 9.222-9.335-.632-17.156-6.236-24.53-12.756-8.887-7.855-20.586-15.062-21.35-27.806-.782-13.033 8.909-23.513 17.77-31.864C33.77 11.964 43.609 7.284 53.926 8.09z" clip-rule="evenodd"/>
    <path fill="#000" fill-rule="evenodd" d="M71.906 19.59c2.275.901 4.286 2.705 5.963 4.337 1.949 1.897 2.85 4.999 1.201 7.514-3.4 5.189-9.638 10.173-11.744 11.856l-.304.243c-2.349 1.887-4.057 3.538-5.193 5.476-1.123 1.914-1.731 4.186-1.731 7.381 0 4.036-1.672 7.869-4.159 10.984-2.486 3.115-5.834 5.576-9.3 6.854-6.288 2.32-13.331-.904-17.565-5.846-4.252-4.963-6.03-12.116-1.106-17.8 2.55-2.945 5.754-5.423 9.312-7.358 3.03-1.647 5.854-3.744 8.295-6.266 5.73-5.919 11.945-11.408 18.624-16.278 2.718-1.981 5.339-2.035 7.707-1.097zm-.737 1.86c-1.773-.703-3.665-.697-5.792.853C58.8 27.1 52.67 32.513 47.012 38.356c-2.591 2.677-5.58 4.894-8.776 6.633-3.376 1.835-6.382 4.169-8.756 6.909-4.027 4.65-2.778 10.648 1.113 15.19 3.91 4.564 10.127 7.2 15.355 5.27 3.099-1.143 6.153-3.374 8.428-6.224 2.274-2.85 3.722-6.256 3.722-9.737 0-3.47.666-6.11 2.005-8.393 1.326-2.26 3.267-4.096 5.667-6.023l.288-.232c2.121-1.697 8.125-6.5 11.34-11.404.973-1.486.555-3.545-.924-4.985-1.68-1.635-3.44-3.172-5.305-3.91z" clip-rule="evenodd"/>
    <path fill="#EF6C7F" d="M38.001 58.46c-.058-3.173 1.716-6.294 5.142-6.46 2.57 1.307 4.806 2.26 5.612 5.401.889 3.466-.652 6.667-4.402 6.598-2.971-.055-6.291-2.296-6.352-5.538z"/>
    <path fill="#F8B7BF" d="M49.152 46.044c-.486-2.248.163-3.314 2.418-4.044 3.205 0 4.965 4.343 1.65 5.714-1.695.702-3.685.099-4.068-1.67z"/>
    <path fill="#EF6C7F" d="M64.047 31.17C63.667 28.96 65.62 27 69.37 27c3.173.577 3.704 5.398.32 5.913-1.8.274-5.352-.046-5.644-1.744z"/>
    <path fill="#000" fill-rule="evenodd" d="M47.894 31.552c.248.494.048 1.095-.446 1.342-1.595.799-3.164 1.657-4.686 2.55-.205.12-.428.237-.634.343l-.079.04c-.184.095-.358.184-.526.277-.407.225-.642.398-.748.529-.35.427-.98.49-1.407.142-.428-.35-.492-.98-.143-1.408.37-.453.908-.78 1.331-1.014.196-.108.398-.212.58-.306l.076-.038c.209-.108.386-.2.537-.29 1.557-.913 3.165-1.793 4.803-2.613.494-.248 1.095-.048 1.342.446zM35.978 38.793c.114.54-.231 1.071-.771 1.185-2.023.428-3.842 1.91-5.468 3.695-.372.409-1.004.438-1.412.066-.409-.371-.438-1.004-.066-1.412 1.696-1.863 3.873-3.744 6.532-4.305.54-.114 1.071.231 1.185.771zM23.783 48.378c.344.433.271 1.062-.161 1.405-1.523 1.21-2.33 3.242-2.632 5.358-.078.547-.585.927-1.131.849-.547-.078-.927-.585-.849-1.131.336-2.354 1.273-4.978 3.368-6.642.433-.344 1.062-.271 1.405.161zM20 62c.552 0 1 .448 1 1 0 1.46.258 2.794.994 3.934.165.256.315.505.464.751.235.387.466.77.749 1.17.445.634.857 1.059 1.24 1.25.494.248.694.848.447 1.342-.247.494-.847.694-1.341.447-.847-.423-1.494-1.195-1.982-1.887-.31-.44-.625-.958-.89-1.395-.139-.227-.264-.432-.368-.594C19.296 66.442 19 64.683 19 63c0-.552.448-1 1-1zM29.229 75.363c.352-.426.982-.486 1.408-.134C32.837 77.046 35.367 78 38 78c.552 0 1 .448 1 1s-.448 1-1 1c-3.14 0-6.112-1.144-8.637-3.229-.426-.352-.486-.982-.134-1.408zM55.892 74.547c.25.493.053 1.094-.439 1.344-.556.283-1.046.668-1.592 1.13-.072.06-.146.122-.22.186-.472.4-1.005.853-1.602 1.235-1.801 1.153-3.594 2.032-5.819 2.534-.538.121-1.074-.217-1.195-.756-.122-.539.217-1.074.755-1.195 1.936-.437 3.512-1.2 5.181-2.267.474-.304.894-.66 1.371-1.064l.24-.203c.558-.47 1.197-.987 1.975-1.383.493-.25 1.095-.053 1.345.44zM61.474 65.12c.487.261.668.868.407 1.354-.42.779-.765 1.55-1.125 2.354-.089.198-.178.398-.27.6-.458 1.012-.962 2.064-1.648 3.118-.301.462-.92.593-1.384.292-.462-.301-.593-.92-.292-1.384.6-.922 1.054-1.86 1.502-2.85l.254-.565c.363-.81.744-1.664 1.202-2.513.262-.486.868-.668 1.354-.406zM64.545 55.161c.463.301.595.92.294 1.384-.839 1.29-.838 2.7-.838 4.372V61c0 .552-.448 1-1 1-.553 0-1-.448-1-1v-.24c-.004-1.552-.008-3.506 1.161-5.305.3-.463.92-.594 1.383-.294zM68.427 46.096c.5.236.713.832.477 1.331-.265.562-.558 1.087-.832 1.578l-.23.415c-.341.62-.65 1.224-.901 1.92-.188.52-.76.788-1.28.6-.52-.187-.789-.76-.601-1.28.304-.842.67-1.551 1.029-2.203l.258-.465c.267-.478.516-.924.749-1.419.236-.5.832-.713 1.331-.477z" clip-rule="evenodd"/>
</svg>
