<svg xmlns="http://www.w3.org/2000/svg" width="100" height="100" fill="none" viewBox="0 0 100 100">
    <path fill="#FDF0F2" fill-rule="evenodd" d="M45.873 11.117C54.463 13 60.27 20.623 67.237 26.794c8.99 7.964 22.861 11.948 24.551 24.992 1.744 13.456-7.532 25.882-16.919 33.922-8.209 7.03-18.917 7.039-28.994 5.402-8.528-1.385-15.58-6.865-21.927-13.672-6.749-7.238-13.166-15.1-14.742-25.652-1.89-12.653-2.508-27.675 5.46-36.512 7.899-8.76 20.51-6.501 31.209-4.157z" clip-rule="evenodd"/>
    <path fill="#000" fill-rule="evenodd" d="M47.738 24.918c1.011.056 1.944.107 2.779.107 4.611 0 10.71.998 14.974 3.13l.396.198c2.956 1.471 6.169 3.071 7.54 6.843.366 1.006.711 2.012 1.053 3.009.496 1.446.986 2.875 1.524 4.26 2.196 5.644 1.704 13.142-.138 18.668-1.031 3.093-3.34 5.919-6.035 8.184-2.704 2.272-5.879 4.05-8.762 5.01-6.102 2.035-11.723 2.269-18.003 1.57-2.097-.232-3.75-.745-5.256-1.593-1.491-.84-2.792-1.982-4.207-3.397-1.679-1.679-3.824-3.905-5.602-6.353-1.763-2.428-3.256-5.194-3.476-7.948-.413-5.168-.518-11.131 1.185-16.241 2.217-6.65 6.23-11.472 12.348-14.296 1.79-1.053 4.1-1.274 6.267-1.275 1.111 0 2.233.06 3.283.117l.13.007zm-3.413 1.876c-2.133 0-3.988.24-5.287 1.02-.032.018-.064.035-.097.05-5.585 2.564-9.265 6.928-11.333 13.134-1.567 4.7-1.5 10.317-1.09 15.448.176 2.198 1.405 4.597 3.101 6.932 1.681 2.314 3.732 4.449 5.398 6.115 1.375 1.374 2.522 2.363 3.774 3.068 1.237.696 2.622 1.141 4.495 1.35 6.079.674 11.394.438 17.15-1.48 2.627-.876 5.583-2.523 8.108-4.645 2.533-2.128 4.551-4.666 5.425-7.285 1.74-5.223 2.151-12.221.172-17.312-.545-1.401-1.067-2.92-1.58-4.411-.34-.992-.676-1.973-1.013-2.899-1.094-3.008-3.63-4.275-6.776-5.847l-.176-.088c-3.9-1.95-9.665-2.919-14.08-2.919-.89 0-1.874-.054-2.865-.108l-.153-.009c-1.055-.058-2.124-.114-3.173-.114z" clip-rule="evenodd"/>
    <path fill="#EF6C7F" d="M68.935 61.882c-1.379 2.428-10.351 9.134-15.435 7.987-1.972-6.84-2.5-30.951-2.5-38.377 5.51-1.264 17.068-.872 19.218 10.803 1.293 4.81 1.06 15.46-1.283 19.587z"/>
    <path fill="#F8B7BF" d="M33.809 62.843c1.57 2.165 10.961 7.658 15.836 6.1 1.314-6.645-.345-29.465-1.015-36.478-5.51-.678-16.794.773-17.845 12-.832 4.664.356 14.7 3.024 18.378z"/>
    <path fill="#000" fill-rule="evenodd" d="M56.023 38.513c.119-.54.652-.88 1.192-.762 1.811.397 3.029 1.107 3.91 2.08.85.937 1.323 2.06 1.754 3.085.214.509-.025 1.095-.534 1.309-.51.214-1.095-.025-1.31-.534-.448-1.067-.806-1.871-1.392-2.518-.553-.61-1.374-1.143-2.857-1.469-.54-.118-.88-.652-.763-1.191z" clip-rule="evenodd"/>
    <path fill="#000" fill-rule="evenodd" d="M70.14 31.711c-.365.325-.73.65-1.067.927-3.041 2.488-5.755 5.186-8.247 8.246-.348.428-.978.493-1.407.144-.428-.348-.492-.978-.144-1.407 2.58-3.169 5.39-5.961 8.532-8.531.3-.246.622-.533.981-.854l.31-.276c.476-.422 1.002-.88 1.556-1.298 1.075-.812 2.42-1.611 3.887-1.611.552 0 1 .447 1 1 0 .552-.448 1-1 1-.776 0-1.67.444-2.681 1.207-.488.368-.965.782-1.435 1.198l-.286.255z" clip-rule="evenodd"/>
    <path fill="#000" fill-rule="evenodd" d="M71.074 24.396c.334-.44.96-.527 1.401-.193 2.21 1.674 3.222 3.198 4.52 5.155l.284.426c.306.46.182 1.08-.277 1.387-.46.306-1.08.182-1.387-.278l-.263-.395c-1.307-1.966-2.15-3.236-4.085-4.7-.44-.334-.526-.962-.193-1.402zM79.762 47.844c-1.18.265-2.466.553-3.844.586-.552.013-1.01-.424-1.023-.976-.013-.552.424-1.01.976-1.024 1.176-.028 2.29-.277 3.519-.553l.083-.018c1.234-.277 2.582-.573 4.048-.573.552 0 1 .448 1 1s-.448 1-1 1c-1.216 0-2.362.245-3.611.524l-.148.034z" clip-rule="evenodd"/>
    <path fill="#000" fill-rule="evenodd" d="M82.504 42.132c.48-.274 1.09-.108 1.364.372.66 1.155 1.084 2.168 1.336 3.233.25 1.059.321 2.125.321 3.364 0 .552-.447 1-1 1-.552 0-1-.448-1-1 0-1.168-.067-2.06-.267-2.903-.198-.837-.537-1.671-1.126-2.702-.274-.48-.108-1.09.372-1.364zM66.02 56c.552.011.99.468.98 1.02-.064 3.196-1.75 5.166-3.469 6.461-.44.333-1.068.244-1.4-.197-.332-.44-.244-1.068.197-1.4 1.421-1.07 2.624-2.528 2.672-4.904.011-.552.468-.99 1.02-.98z" clip-rule="evenodd"/>
    <path fill="#000" fill-rule="evenodd" d="M64.882 59.698c.385-.396 1.018-.406 1.414-.02 1.115 1.081 2.346 1.878 3.675 2.635.412.236.844.472 1.286.714.945.518 1.937 1.061 2.891 1.674.284.183.55.357.807.525.876.575 1.631 1.07 2.531 1.52.494.246.694.847.447 1.341-.247.494-.847.694-1.341.447-1.014-.507-1.894-1.083-2.788-1.67-.244-.16-.489-.32-.737-.48-.897-.576-1.78-1.06-2.689-1.557-.458-.25-.922-.505-1.398-.776-1.386-.79-2.785-1.685-4.077-2.939-.396-.384-.406-1.017-.021-1.414z" clip-rule="evenodd"/>
    <path fill="#000" fill-rule="evenodd" d="M79.05 64c.553 0 1 .448 1 1 0 1.345-.164 2.643-.716 3.795-.566 1.18-1.499 2.125-2.887 2.82-.493.246-1.094.046-1.341-.448-.247-.494-.047-1.095.447-1.342 1.03-.515 1.622-1.154 1.978-1.895.368-.768.52-1.725.52-2.93 0-.552.448-1 1-1zM50.955 74.66c.545-.086 1.057.287 1.142.833.107.68.136 1.472.163 2.203.011.287.022.566.036.824.056 1 .174 1.806.47 2.4.248.494.047 1.095-.447 1.342-.494.247-1.094.046-1.341-.448-.496-.991-.621-2.16-.679-3.182-.02-.354-.032-.687-.044-1.003-.024-.672-.046-1.269-.133-1.827-.086-.545.287-1.057.833-1.142z" clip-rule="evenodd"/>
    <path fill="#000" fill-rule="evenodd" d="M55.49 81.051c.175.524-.108 1.09-.633 1.265-.44.147-.802.285-1.145.417l-.333.127c-.432.163-.875.318-1.357.4-1.02.176-2.04 0-3.556-.577-.517-.197-.776-.774-.579-1.29.197-.517.774-.776 1.29-.579 1.375.524 1.998.563 2.506.476.282-.049.575-.145.992-.302l.295-.113c.35-.134.768-.294 1.255-.457.524-.174 1.09.109 1.265.633zM37.236 58.4c.47-.29 1.086-.145 1.377.325.369.595.655 1.086.885 1.48l.23.396c.273.46.446.721.633.93.364.407.86.712 2.586 1.575.494.247.694.847.447 1.341-.247.494-.847.694-1.341.447-1.636-.817-2.515-1.283-3.182-2.029-.33-.367-.586-.777-.864-1.246l-.25-.427c-.227-.39-.491-.844-.844-1.415-.291-.47-.146-1.086.324-1.376z" clip-rule="evenodd"/>
    <path fill="#000" fill-rule="evenodd" d="M39.702 62.457c.335.438.252 1.066-.187 1.401-1.587 1.214-3.065 2.6-4.585 4.027l-.626.587c-1.726 1.613-3.522 3.244-5.519 4.576-.46.306-1.08.182-1.387-.278-.306-.46-.182-1.08.278-1.386 1.847-1.231 3.537-2.76 5.262-4.373l.62-.581c1.512-1.42 3.07-2.881 4.742-4.16.439-.336 1.066-.252 1.402.187z" clip-rule="evenodd"/>
    <path fill="#000" fill-rule="evenodd" d="M25.495 69.415c.494-.247 1.095-.047 1.342.447.636 1.272 1.157 2.269 1.836 2.972.622.645 1.389 1.05 2.608 1.05.552 0 1 .449 1 1 0 .553-.448 1-1 1-1.78 0-3.06-.638-4.047-1.66-.93-.964-1.58-2.254-2.186-3.468-.247-.494-.047-1.094.447-1.341zM40.135 43.43c-.588.633-1.085 1.542-1.421 2.574-.171.526-.736.812-1.26.641-.526-.17-.813-.735-.642-1.26.4-1.23 1.022-2.417 1.858-3.316.84-.904 1.952-1.569 3.287-1.569.553 0 1 .448 1 1s-.447 1-1 1c-.622 0-1.238.302-1.822.93z" clip-rule="evenodd"/>
    <path fill="#000" fill-rule="evenodd" d="M25.495 27.088c.494-.247 1.095-.046 1.342.448.295.59.813 1.273 1.433 1.986.47.54.964 1.058 1.422 1.538l.41.43c.891.945 1.677 1.991 2.436 3l.388.516c.764 1.01 1.61 1.93 2.492 2.89.181.196.364.394.547.595 1.06 1.163 2.14 2.399 3.03 3.837.29.47.146 1.086-.324 1.377-.47.29-1.086.145-1.377-.324-.785-1.27-1.757-2.391-2.806-3.541-.172-.19-.347-.379-.523-.57-.883-.96-1.806-1.963-2.634-3.057l-.404-.536c-.762-1.013-1.471-1.957-2.28-2.813l-.382-.402c-.462-.485-1-1.048-1.504-1.627-.647-.744-1.3-1.581-1.713-2.405-.247-.494-.047-1.095.447-1.341z" clip-rule="evenodd"/>
    <path fill="#000" fill-rule="evenodd" d="M28.612 27.458c-1.537 0-2.854 1.04-4.485 3.715-.287.471-.902.62-1.374.333-.472-.288-.62-.903-.333-1.375 1.67-2.74 3.506-4.673 6.192-4.673.552 0 1 .447 1 1 0 .552-.448 1-1 1zM17.697 50.48c0-.552.448-1 1-1h6.101c.553 0 1 .448 1 1 0 .553-.447 1-1 1h-6.1c-.553 0-1-.447-1-1z" clip-rule="evenodd"/>
    <path fill="#000" fill-rule="evenodd" d="M17.885 45.023c.54.119.88.652.761 1.192-.298 1.355-.599 2.801-.641 4.126-.043 1.342.189 2.355.75 3.004.362.417.317 1.049-.1 1.41-.418.362-1.049.317-1.41-.1-1.058-1.22-1.288-2.86-1.239-4.378.05-1.536.393-3.155.687-4.492.119-.54.652-.88 1.192-.762zM50.232 18.28c.553 0 1 .449 1 1 0 1.037.086 2.058.176 3.129v.013c.09 1.054.182 2.157.182 3.293 0 .553-.448 1-1 1s-1-.447-1-1c0-1.044-.086-2.068-.175-3.139l-.002-.024c-.089-1.05-.18-2.146-.18-3.271 0-.552.447-1 1-1z" clip-rule="evenodd"/>
    <path fill="#000" fill-rule="evenodd" d="M52.263 19.906c-1.274-.996-3.126-1.066-4.83-.26-.498.237-1.095.024-1.331-.475-.236-.5-.023-1.096.476-1.332 2.2-1.04 4.899-1.086 6.916.491.435.34.512.969.172 1.404-.34.435-.968.512-1.403.172z" clip-rule="evenodd"/>
</svg>
