<svg width="100" height="100" viewBox="0 0 100 100" fill="none" xmlns="http://www.w3.org/2000/svg">
<path fill-rule="evenodd" clip-rule="evenodd" d="M52.513 8.0074C63.1319 7.81311 73.8567 11.4385 81.1327 19.6576C88.2276 27.6724 88.7807 39.1076 89.7417 50.0624C90.8547 62.7486 95.4709 77.681 87.0156 86.717C78.5558 95.7577 64.5118 89.7162 52.513 89.8478C40.2839 89.982 26.5936 95.9155 17.2904 87.4819C7.72883 78.8142 7.12178 63.3199 8.62471 50.0624C9.95332 38.3425 16.6114 28.5936 24.8625 20.6872C32.6119 13.2615 42.0785 8.19832 52.513 8.0074Z" fill="#FDF0F2"/>
<path fill-rule="evenodd" clip-rule="evenodd" d="M43.067 18.1668C40.4968 17.9247 38.5203 18.4154 37.6713 19.7483C36.4817 21.6162 35.8995 23.6617 35.2736 25.8605C35.0976 26.479 34.918 27.1097 34.7206 27.752C33.8409 30.6132 32.6264 33.5428 29.6517 35.8393C28.7188 36.5595 27.6202 36.849 26.6058 36.9899C25.9599 37.0796 25.2456 37.1172 24.6098 37.1506C24.2941 37.1672 23.9978 37.1828 23.7388 37.2033C22.8541 37.2731 22.2792 37.3996 21.9181 37.6353C21.6518 37.8092 21.3886 38.115 21.3568 38.942C21.2776 40.9999 21.7483 42.5595 22.4255 44.155C22.6229 44.6199 22.8469 45.1051 23.0822 45.6144C23.635 46.8114 24.2495 48.1418 24.7232 49.6562C25.1337 50.9687 25.2252 52.1077 25.0596 53.1456C24.8945 54.1811 24.4841 55.0481 23.9912 55.8264C23.6188 56.4144 23.1723 56.9899 22.7444 57.5413C22.6233 57.6973 22.5037 57.8514 22.3877 58.0034C21.8438 58.7158 21.329 59.4401 20.9072 60.2829C19.594 62.9072 18.9798 65.0617 19.0005 67.109C19.0208 69.1216 19.6559 71.1357 21.0281 73.4899C22.5194 75.0819 24.46 75.4791 26.4146 75.4444C27.4088 75.4268 28.3699 75.2977 29.2471 75.1717C29.3201 75.1612 29.3934 75.1505 29.467 75.1398C30.2197 75.0306 30.9933 74.9182 31.574 74.9488C35.6523 75.1632 38.5182 77.2521 41.0822 79.1211C41.4736 79.4063 41.8579 79.6864 42.2384 79.954C43.7095 80.9884 45.14 81.8634 46.7762 82.3391C48.3909 82.8086 50.2636 82.9049 52.6291 82.2792C54.5453 81.7724 55.8703 80.3591 57.2572 78.5976C57.4347 78.3722 57.6151 78.1386 57.7984 77.9014C58.3037 77.2473 58.8308 76.5651 59.3786 75.9464C60.1369 75.0901 60.9985 74.2781 62.0473 73.696C63.533 72.8713 65.136 72.3196 66.6901 71.8477C67.1785 71.6994 67.6568 71.5603 68.1265 71.4237C69.1849 71.116 70.199 70.8211 71.1844 70.4627C73.9588 69.4536 76.153 68.0596 77.2312 64.9476C77.9717 62.8101 78.0999 60.1486 78.0202 57.3086C77.9857 56.0801 77.9137 54.8435 77.8423 53.6184C77.8317 53.4363 77.8211 53.2545 77.8107 53.073C77.7304 51.6795 77.6584 50.304 77.6584 49.0252C77.6584 46.4684 78.5617 44.3576 79.3808 42.4436L79.4098 42.3757C80.2536 40.4037 81 38.6285 81 36.5C81 34.7136 80.0325 32.4768 78.4549 30.6394C76.8756 28.8 74.8648 27.5672 72.9643 27.4993C70.9347 27.4269 69.1825 27.741 67.4014 28.0602C66.7567 28.1758 66.1082 28.292 65.4414 28.3909C62.9704 28.7571 60.4268 28.8302 57.5531 27.3946C55.4882 26.363 54.2531 24.8907 53.1535 23.5468C53.1203 23.5062 53.0873 23.4658 53.0544 23.4255C51.9822 22.1142 51.0316 20.9516 49.5042 20.0795C48.1155 19.2867 45.5507 18.4007 43.067 18.1668ZM43.2545 16.1756C46.0078 16.4349 48.8487 17.4023 50.4958 18.3427C52.352 19.4025 53.5123 20.8238 54.5503 22.0954C54.601 22.1574 54.6513 22.219 54.7014 22.2803C55.7929 23.6143 56.7973 24.7813 58.4469 25.6054C60.7987 26.7803 62.8688 26.7503 65.1482 26.4125C65.7036 26.3302 66.2834 26.226 66.8871 26.1176C68.7196 25.7886 70.7728 25.4199 73.0357 25.5006C75.7049 25.5959 78.1941 27.2655 79.9723 29.3366C81.7524 31.4097 83 34.0914 83 36.5C83 39.0695 82.0939 41.187 81.2733 43.1048L81.2486 43.1624C80.4044 45.1355 79.6584 46.9058 79.6584 49.0252C79.6584 50.2394 79.727 51.5619 79.8074 52.958C79.8177 53.1373 79.8282 53.3178 79.8388 53.4994C79.91 54.7221 79.984 55.9915 80.0194 57.2525C80.1002 60.1314 79.9873 63.1017 79.121 65.6023C77.7624 69.5236 74.9158 71.2337 71.868 72.3422C70.8183 72.724 69.7012 73.0489 68.6131 73.3655C68.1584 73.4978 67.7087 73.6286 67.2711 73.7614C65.7514 74.2229 64.3131 74.7257 63.018 75.4446C62.2477 75.8722 61.56 76.4998 60.8759 77.2723C60.3759 77.8371 59.9111 78.4387 59.4203 79.0739C59.2283 79.3225 59.0322 79.5762 58.8286 79.8348C57.4334 81.6069 55.7535 83.5217 53.1404 84.2128C50.4442 84.9259 48.201 84.8362 46.2178 84.2596C44.2562 83.6892 42.6068 82.6579 41.088 81.59C40.6679 81.2946 40.2582 80.9979 39.8541 80.7053C37.2709 78.8345 34.9133 77.1271 31.469 76.946C31.0955 76.9264 30.5143 77.01 29.6351 77.1364L29.5317 77.1513C28.652 77.2777 27.5814 77.4241 26.4501 77.4441C24.1836 77.4843 21.5281 77.0186 19.4791 74.7603C19.4332 74.7097 19.3926 74.6545 19.358 74.5957C17.8307 72.0016 17.0257 69.6187 17.0006 67.1292C16.9756 64.6487 17.7262 62.1705 19.1187 59.3879C19.6254 58.3754 20.2307 57.5329 20.798 56.7897C20.9377 56.6068 21.0726 56.4329 21.2027 56.265C21.6182 55.7291 21.9852 55.2559 22.3015 54.7564C22.7018 54.1243 22.9755 53.5148 23.0846 52.8306C23.1933 52.1487 23.1494 51.3245 22.8143 50.2533C22.38 48.8646 21.8572 47.7345 21.3285 46.5919C21.0789 46.0524 20.828 45.51 20.5845 44.9364C19.8413 43.1855 19.2637 41.3211 19.3583 38.8651C19.4096 37.5328 19.9062 36.5604 20.8247 35.9607C21.6484 35.4229 22.6832 35.2804 23.5814 35.2095C23.9542 35.1801 24.3041 35.1623 24.6434 35.145C25.2161 35.1159 25.7587 35.0883 26.3307 35.0089C27.1938 34.889 27.894 34.6696 28.4296 34.2561C30.9102 32.3411 31.9689 29.8964 32.8089 27.1643C32.9779 26.6144 33.1393 26.045 33.304 25.4639C33.9383 23.2255 34.6218 20.8134 35.9844 18.6739C37.4962 16.3003 40.5878 15.9244 43.2545 16.1756Z" fill="black"/>
<path d="M40.4631 49.1528C41.8369 45.4741 45.8546 45.4137 49.2382 45C57.7707 45 57.1628 58 48.5828 58C44.971 58 42.1269 56.1354 40.3902 53.1972C39.7211 52.0651 40.0254 50.3247 40.4631 49.1528Z" fill="#EF6C7F"/>
<path d="M37.3394 35.6471C35.988 30.76 38.1337 26.3216 43.058 26.2057C46.4211 25.3544 48.9587 27.1973 48.9587 30.7788C48.9587 34.2485 49.6182 38.0796 45.6806 39.6301C42.5724 40.854 38.2435 38.9164 37.3394 35.6471Z" fill="#F8B7BF"/>
<path d="M28.9755 42.4271C24.2846 44.5405 29.011 50.5789 32.1817 48.6115C35.5492 46.5219 33.5 41.5 28.9755 42.4271Z" fill="#EF6C7F"/>
<path d="M27.5003 64C27.6708 62.0063 29.2742 60.4067 31.3294 60C35.8686 60 39.0773 64.7698 35.399 67.9863C33.7051 69.4675 31.2169 69.2017 29.4795 67.9863C27.8315 66.8334 27.3402 65.8717 27.5003 64Z" fill="#F8B7BF"/>
<path d="M45.4159 73.9042C44.1561 70.943 45.8258 66.5892 49.5098 67C50.9652 67 53.2089 68.4866 54.0964 69.5362C55.7361 71.4756 54.9907 73.6088 53.0919 75.1019C51.2393 76.5586 46.4356 76.301 45.4159 73.9042Z" fill="#EF6C7F"/>
<path d="M60.1768 64.8276C59.4241 61.2746 62.0519 56.0994 65.851 56C69.0453 56 70.0003 57.9493 70.0003 61.1367C70.0003 63.9182 69.1913 67.7971 65.851 67.9857C63.723 68.1059 60.7432 67.5018 60.1768 64.8276Z" fill="#F8B7BF"/>
<path d="M59.6094 43.8904C57.4051 39.4451 61.5655 34.0773 65.9375 34C68.6584 34 71 38.2551 71 40.5404C71 43.1961 69.7238 46.236 67.3613 47.5594C64.5809 49.117 60.7659 46.2229 59.6094 43.8904Z" fill="#EF6C7F"/>
</svg>
