<svg width="692" height="21" viewBox="0 0 692 21" fill="none" xmlns="http://www.w3.org/2000/svg">
<path d="M337.563 10.3401C339.077 14.8816 342.783 17.4801 347.237 19.283C348.965 15.8273 362.136 0.999785 350.636 1C348.209 1.89411 345.68 7.55754 344.311 6.1125C342.867 4.58892 339.965 0.946316 337.725 3.18573C336.17 4.74094 337.563 10.3401 337.563 10.3401Z" stroke="#EF6C7F" stroke-width="2" stroke-linecap="round" stroke-linejoin="round"/>
<path d="M370.989 11.5793C446.983 11.5793 522.941 12.085 598.937 12.2727C629.672 12.3486 660.313 13.6593 690.989 13.6593" stroke="#EF6C7F" stroke-width="2" stroke-linecap="round" stroke-linejoin="round"/>
<path d="M321 11.5793C245.007 11.5793 169.049 12.085 93.0518 12.2727C62.3168 12.3486 31.6758 13.6593 1.00001 13.6593" stroke="#EF6C7F" stroke-width="2" stroke-linecap="round" stroke-linejoin="round"/>
</svg>
