<svg xmlns="http://www.w3.org/2000/svg" width="100" height="100" fill="none" viewBox="0 0 100 100">
    <path fill="#FDF0F2" fill-rule="evenodd" d="M51.72 10.538c11.195.726 23.598-.962 31.7 5.866 8.198 6.909 9.197 17.91 8.32 27.86-.806 9.12-6.696 16.492-12.882 23.85-7.886 9.38-13.957 22.395-27.139 23.747-13.643 1.399-25.775-7.988-34.307-17.448-7.614-8.442-8.199-19.383-8.62-30.149-.444-11.342-3.453-24.734 6.175-32.298 9.504-7.467 24.039-2.252 36.752-1.428z" clip-rule="evenodd"/>
    <path fill="#F8B7BF" d="M33.916 26.62c-2.153 2.587 8.157 17.705 11.588 17.342 3.431-.363 8.089-3.4 5.801-6.574L42.261 24.84c-3.06-4.245-5.265-1.925-8.346 1.779z"/>
    <path fill="#000" fill-rule="evenodd" d="M44.468 42.583c.558.353.85.393.93.385 1.521-.161 3.338-.93 4.474-1.975.563-.517.89-1.038 1-1.513.099-.434.04-.928-.378-1.507l-9.045-12.547c-.718-.997-1.309-1.495-1.775-1.713-.418-.196-.79-.196-1.216-.031-.472.184-1.017.578-1.67 1.216-.647.631-1.332 1.433-2.104 2.361-.008.014-.106.188-.037.74.067.538.273 1.25.616 2.098.683 1.69 1.837 3.747 3.182 5.741 1.344 1.992 2.846 3.874 4.203 5.222.68.676 1.298 1.192 1.82 1.523zM32.662 28.247c-.092-.738-.057-1.615.485-2.267.768-.923 1.514-1.8 2.243-2.513.722-.705 1.497-1.32 2.344-1.65.893-.346 1.837-.362 2.79.085.904.425 1.736 1.229 2.548 2.354l9.044 12.547c.727 1.008.943 2.084.705 3.123-.228 1-.85 1.855-1.595 2.54-1.479 1.358-3.706 2.289-5.617 2.49-.777.083-1.558-.27-2.211-.684-.691-.437-1.425-1.063-2.16-1.793-1.474-1.465-3.057-3.457-4.451-5.523-1.392-2.064-2.626-4.248-3.379-6.11-.374-.926-.648-1.818-.746-2.6z" clip-rule="evenodd"/>
    <path fill="#EF6C7F" d="M74.514 15.778c-3.215-.993-13.21 14.335-11.557 17.363 1.653 3.028 6.248 6.161 8.298 2.83l8.108-13.172c2.743-4.457-.246-5.6-4.849-7.021z"/>
    <path fill="#000" fill-rule="evenodd" d="M63.832 31.654c-.112.652-.037.937.002 1.008.733 1.342 2.142 2.723 3.543 3.37.693.322 1.3.424 1.78.342.44-.075.872-.32 1.247-.928l8.107-13.172c.644-1.046.877-1.783.9-2.297.02-.46-.123-.805-.44-1.134-.35-.366-.923-.718-1.764-1.075-.83-.354-1.834-.679-2.988-1.035-.015-.002-.214-.026-.697.25-.471.27-1.049.732-1.7 1.375-1.298 1.28-2.754 3.136-4.078 5.144-1.322 2.006-2.482 4.117-3.206 5.887-.362.888-.601 1.657-.706 2.265zm8.699-16.408c.645-.368 1.468-.674 2.278-.424 1.148.355 2.244.706 3.182 1.106.93.395 1.795.874 2.424 1.53.663.69 1.04 1.557.994 2.608-.044.998-.467 2.075-1.194 3.257l-8.108 13.171c-.651 1.058-1.562 1.671-2.612 1.851-1.01.173-2.04-.072-2.958-.497-1.822-.843-3.537-2.542-4.458-4.228-.375-.686-.349-1.542-.218-2.304.138-.806.434-1.724.826-2.683.786-1.924 2.016-4.151 3.388-6.232 1.37-2.078 2.912-4.057 4.342-5.467.711-.701 1.43-1.297 2.114-1.688z" clip-rule="evenodd"/>
    <path fill="#F8B7BF" d="M61.763 38.627c-2.88 1.74 1.912 19.401 5.272 20.181 3.361.78 8.757-.565 7.634-4.313L70.23 39.68c-1.502-5.013-4.344-3.542-8.467-1.052z"/>
    <path fill="#000" fill-rule="evenodd" d="M66.508 57.165c.412.517.675.65.754.669 1.49.346 3.458.213 4.873-.402.701-.304 1.182-.69 1.44-1.102.236-.378.341-.864.136-1.548l-4.439-14.816c-.352-1.177-.748-1.841-1.116-2.2-.33-.322-.683-.444-1.14-.427-.506.018-1.15.212-1.976.602-.817.385-1.727.918-2.76 1.542-.012.01-.162.143-.277.687-.113.53-.152 1.27-.105 2.184.091 1.82.509 4.143 1.127 6.467.618 2.322 1.422 4.592 2.262 6.31.421.862.836 1.552 1.22 2.034zm-6.462-17.41c.154-.727.474-1.545 1.2-1.983 1.028-.622 2.02-1.206 2.942-1.64.913-.431 1.847-.758 2.754-.792.958-.036 1.856.259 2.61.993.715.697 1.238 1.73 1.636 3.059l4.439 14.816c.356 1.19.209 2.278-.356 3.182-.543.869-1.411 1.474-2.34 1.877-1.84.8-4.25.95-6.122.515-.761-.177-1.383-.766-1.865-1.37-.51-.64-.998-1.471-1.454-2.402-.913-1.867-1.757-4.267-2.398-6.675-.64-2.406-1.09-4.874-1.192-6.88-.05-.997-.017-1.93.146-2.7z" clip-rule="evenodd"/>
    <path fill="#EF6C7F" d="M53.253 76.197c2.488 2.265 18.05-7.362 17.84-10.806-.21-3.444-3.037-8.232-6.31-6.088l-12.936 8.478c-4.377 2.868-2.157 5.174 1.406 8.416z"/>
    <path fill="#000" fill-rule="evenodd" d="M69.669 66.365c.378-.542.431-.832.426-.913-.093-1.526-.781-3.375-1.774-4.557-.491-.585-.998-.936-1.467-1.065-.43-.119-.925-.081-1.522.31l-12.937 8.478c-1.027.673-1.551 1.241-1.79 1.697-.215.409-.231.781-.085 1.214.162.48.532 1.041 1.14 1.722.602.674 1.373 1.394 2.266 2.207.013.008.182.114.737.07.541-.044 1.26-.217 2.124-.522 1.718-.607 3.825-1.67 5.876-2.924 2.05-1.254 3.997-2.671 5.404-3.967.706-.65 1.25-1.244 1.602-1.75zM54.823 77.521c-.741.06-1.616-.014-2.243-.584-.889-.809-1.731-1.593-2.41-2.353-.674-.753-1.254-1.555-1.545-2.415-.307-.907-.28-1.852.209-2.783.464-.885 1.304-1.68 2.465-2.441l12.936-8.478c1.04-.68 2.124-.849 3.152-.565.987.273 1.815.932 2.466 1.706 1.291 1.538 2.122 3.805 2.239 5.722.047.78-.34 1.545-.782 2.179-.468.67-1.126 1.376-1.888 2.078-1.53 1.407-3.59 2.9-5.715 4.201-2.124 1.3-4.36 2.435-6.254 3.103-.942.333-1.845.567-2.63.63z" clip-rule="evenodd"/>
    <path fill="#F8B7BF" d="M26.115 67.331c-.41 3.34 16.438 10.48 19.128 8.318 2.689-2.16 4.964-7.235 1.323-8.667l-14.394-5.66c-4.87-1.916-5.47 1.228-6.057 6.009z"/>
    <path fill="#000" fill-rule="evenodd" d="M43.624 75.05c.662-.005.929-.13.992-.18 1.192-.958 2.303-2.588 2.694-4.081.194-.74.188-1.355.022-1.813-.15-.419-.468-.802-1.133-1.064l-14.393-5.66c-1.144-.45-1.91-.549-2.42-.48-.457.06-.771.262-1.04.631-.298.41-.543 1.036-.747 1.926-.202.88-.344 1.926-.492 3.124.001.016.012.215.369.642.348.417.905.904 1.653 1.432 1.488 1.052 3.572 2.158 5.782 3.107 2.207.949 4.49 1.719 6.36 2.12.938.2 1.736.3 2.353.295zm-17.683-5.673c-.476-.57-.922-1.327-.819-2.168.147-1.193.3-2.333.528-3.327.225-.984.545-1.92 1.079-2.655.563-.775 1.35-1.3 2.392-1.438.99-.132 2.125.094 3.417.602l14.393 5.66c1.156.455 1.92 1.243 2.283 2.246.348.963.287 2.02.031 2.998-.508 1.943-1.879 3.93-3.376 5.134-.61.49-1.457.615-2.23.62-.818.006-1.774-.123-2.787-.34-2.032-.435-4.441-1.254-6.73-2.237-2.288-.983-4.508-2.153-6.147-3.312-.816-.576-1.529-1.178-2.034-1.783z" clip-rule="evenodd"/>
    <path fill="#EF6C7F" d="M14.483 41.284c-2.872 1.753 2 19.392 5.364 20.157 3.364.765 8.754-.605 7.614-4.348l-4.506-14.796c-1.524-5.005-4.36-3.522-8.472-1.013z"/>
    <path fill="#000" fill-rule="evenodd" d="M19.312 59.8c.415.516.678.648.757.666 1.491.339 3.459.197 4.872-.424.7-.307 1.178-.695 1.434-1.109.234-.379.338-.865.13-1.548l-4.506-14.796c-.358-1.176-.756-1.838-1.127-2.195-.331-.32-.684-.441-1.14-.422-.507.02-1.15.218-1.974.61-.816.39-1.723.927-2.754 1.556-.011.01-.16.143-.274.687-.11.532-.145 1.271-.095 2.186.1 1.82.528 4.14 1.157 6.46.628 2.32 1.442 4.587 2.29 6.3.426.86.844 1.549 1.23 2.03zm-6.54-17.38c.151-.728.467-1.548 1.19-1.99 1.026-.625 2.015-1.214 2.935-1.653.912-.434 1.844-.766 2.751-.803.958-.04 1.857.25 2.614.981.718.694 1.246 1.724 1.65 3.051l4.506 14.796c.362 1.188.219 2.277-.342 3.184-.54.871-1.404 1.48-2.33 1.887-1.838.808-4.247.969-6.12.543-.763-.173-1.388-.76-1.872-1.362-.513-.637-1.005-1.466-1.464-2.395-.922-1.863-1.777-4.26-2.429-6.664-.65-2.404-1.112-4.87-1.223-6.874-.055-.998-.026-1.93.134-2.702z" clip-rule="evenodd"/>
</svg>
