<svg width="222" height="271" viewBox="0 0 222 271" fill="none" xmlns="http://www.w3.org/2000/svg">
<path fill-rule="evenodd" clip-rule="evenodd" d="M200.586 336.695C169.507 337.357 150.056 315.592 128.77 298.58C107.45 281.541 80.2419 265.902 81.2845 241.349C82.4347 214.262 104.113 188.724 134.048 174.28C163.446 160.095 200.959 157.419 230.232 169.479C255.909 180.058 256.172 206.716 265.545 228.457C275.299 251.084 297.877 272.905 284.457 295.265C269.658 319.924 234.542 335.972 200.586 336.695Z" fill="#D6F7F6"/>
<path fill-rule="evenodd" clip-rule="evenodd" d="M155.765 214.492C168.564 242.821 196.587 250.991 221.113 262.865C245.677 274.759 271.516 292.569 293.222 281.045C317.168 268.331 330.867 237.763 330.998 204.525C331.126 171.884 317.372 136.881 293.872 115.666C273.258 97.0565 249.09 108.309 225.433 109.223C200.811 110.174 171.39 99.2073 156.997 120.954C141.125 144.937 141.781 183.54 155.765 214.492Z" fill="#ECFAFC"/>
</svg>
