<svg width="693" height="280" viewBox="0 0 693 280" fill="none" xmlns="http://www.w3.org/2000/svg">
<path d="M266.809 163.372H261.711C257.324 163.372 254.48 166.292 254.48 170.838V181.877C244.614 168.149 230.212 160.974 212.544 160.974C179.732 160.974 155.915 185.951 155.915 220.371C155.915 254.792 179.732 279.579 212.544 279.579C230.382 279.579 244.775 272.444 254.48 258.876V269.674C254.48 274.35 257.184 277.14 261.711 277.14H266.809C271.407 277.14 274.261 274.28 274.261 269.674V170.838C274.261 166.232 271.387 163.372 266.809 163.372ZM254.71 220.321C254.71 244.546 238.184 261.465 214.537 261.465C191.671 261.465 175.696 244.556 175.696 220.321C175.696 196.087 191.581 178.967 214.317 178.967C238.094 178.967 254.71 195.976 254.71 220.321Z" fill="black"/>
<path d="M361.098 163.864C344.742 163.864 331.05 171.561 324.039 184.345V173.779C324.039 169.172 321.185 166.312 316.588 166.312H311.45C307.123 166.312 304.218 169.323 304.218 173.779V272.534C304.218 277.07 307.053 280 311.45 280H316.548C321.145 280 323.999 277.14 323.999 272.534V224.827C324.21 190.878 347.616 181.907 359.956 181.907C369.831 181.907 386.397 186.302 386.397 215.725V272.534C386.397 277.14 389.252 280 393.849 280H398.947C403.544 280 406.399 277.14 406.399 272.534V215.725C406.429 168.922 374.729 163.864 361.098 163.864Z" fill="black"/>
<path d="M447.854 165.811H442.756C441.761 165.746 440.763 165.894 439.83 166.247C438.896 166.599 438.048 167.147 437.343 167.853C436.638 168.56 436.091 169.409 435.739 170.345C435.388 171.28 435.24 172.28 435.304 173.277V272.032C435.304 276.638 438.159 279.498 442.756 279.498H447.854C452.241 279.498 455.085 276.568 455.085 272.032V173.277C455.085 168.741 452.241 165.811 447.854 165.811Z" fill="black"/>
<path d="M553.941 239.047H546.189C545.549 239.005 544.907 239.1 544.306 239.325C543.705 239.549 543.159 239.899 542.703 240.351C542.229 240.947 541.887 241.638 541.701 242.377C541.514 243.116 541.487 243.886 541.621 244.636V244.877C541.905 246.067 542.04 247.287 542.022 248.51C542.022 257.612 534.861 261.686 527.77 261.686C518.165 261.686 513.297 255.083 513.297 242.077V179.86H543.935C547.08 179.86 548.943 177.973 548.943 174.842V168.4C548.989 167.729 548.891 167.056 548.655 166.426C548.42 165.797 548.053 165.225 547.578 164.75C547.104 164.274 546.533 163.906 545.905 163.67C545.276 163.434 544.605 163.336 543.935 163.382H513.337V136.659C513.337 132.645 510.733 130.076 506.546 130.076H503.662C499.655 130.076 497.192 132.263 496.651 136.267L493.486 163.362H479.714C476.569 163.362 474.706 165.239 474.706 168.38V174.822C474.706 178.063 476.489 179.84 479.714 179.84H493.336V240.943C493.336 254.691 496.951 264.957 504.082 271.47C509.912 276.789 517.894 279.498 527.81 279.498C547.541 279.498 560.291 268.209 560.291 250.728C560.26 248.153 559.951 245.589 559.369 243.081C558.839 240.552 556.775 239.047 553.941 239.047Z" fill="black"/>
<path d="M685.548 163.372H680.45C676.063 163.372 673.218 166.292 673.218 170.838V181.877C663.353 168.149 648.98 160.974 631.282 160.974C598.471 160.974 574.653 185.951 574.653 220.371C574.653 254.792 598.471 279.579 631.282 279.579C649.11 279.579 663.513 272.444 673.218 258.876V269.674C673.218 274.35 675.923 277.14 680.45 277.14H685.548C690.145 277.14 692.999 274.28 692.999 269.674V170.838C693.049 166.232 690.145 163.372 685.548 163.372ZM673.439 220.321C673.439 244.546 656.923 261.465 633.275 261.465C610.4 261.465 594.434 244.556 594.434 220.321C594.434 196.087 610.309 178.967 633.055 178.967C656.832 178.967 673.439 195.976 673.439 220.321Z" fill="black"/>
<path d="M433.011 138.816C433.011 131.491 438.109 126.162 445.19 126.162C452.061 126.162 457.379 131.491 457.379 138.816C457.431 140.444 457.152 142.065 456.561 143.582C455.969 145.099 455.077 146.479 453.937 147.641C452.798 148.802 451.435 149.72 449.932 150.338C448.428 150.957 446.815 151.264 445.19 151.24C438.109 151.24 433.011 145.921 433.011 138.816Z" fill="#76E5E0"/>
<path d="M178.761 89.554C178.761 72.4648 173.881 55.7324 164.697 41.3322C155.513 26.932 142.408 15.4653 126.93 8.28604C111.452 1.10673 94.2467 -1.48544 77.3458 0.815545C60.4449 3.11653 44.5539 10.2146 31.5491 21.2718C18.5442 32.3289 8.9685 46.8834 3.9525 63.2169C-1.0635 79.5504 -1.31036 96.9808 3.24107 113.45C7.7925 129.92 16.9522 144.741 29.6387 156.163C42.3251 167.585 58.0087 175.133 74.8377 177.913V198.856H49.0371C45.6718 198.856 44.1394 200.703 44.1394 203.773V214.059C44.1394 215.361 44.6554 216.609 45.5739 217.529C46.4924 218.45 47.7381 218.967 49.0371 218.967H74.8377V271.711C74.8377 273.909 75.7093 276.018 77.2607 277.572C78.8122 279.127 80.9165 280 83.1106 280H90.7527C92.9441 280 95.0459 279.128 96.5955 277.575C98.1451 276.023 99.0156 273.917 99.0156 271.721V218.967H124.576C127.641 218.967 129.474 217.431 129.474 214.059V203.773C129.474 202.471 128.958 201.222 128.04 200.3C127.121 199.378 125.876 198.859 124.576 198.856H99.0156V178.575C120.913 176.172 141.156 165.761 155.87 149.336C170.584 132.91 178.734 111.625 178.761 89.554ZM131.336 96.6388C131.336 96.6388 127.16 96.5786 123.504 96.5485C100.258 96.3277 74.8377 107.587 74.8377 155.756V157.281C44.3798 151.059 19.5908 123.162 19.5908 89.554C19.4802 80.3003 21.2037 71.1165 24.6616 62.5351C28.1195 53.9536 33.2429 46.1451 39.7349 39.5622C46.2269 32.9792 53.9584 27.7527 62.4813 24.1856C71.0042 20.6185 80.1489 18.7818 89.3855 18.7818C98.6221 18.7818 107.767 20.6185 116.29 24.1856C124.813 27.7527 132.544 32.9792 139.036 39.5622C145.528 46.1451 150.652 53.9536 154.109 62.5351C157.567 71.1165 159.291 80.3003 159.18 89.554C159.18 124.055 132.959 153.427 99.0156 158.144V152.374C99.0156 128.45 109.432 117.1 124.736 117.1C125.738 117.1 126.869 116.99 131.336 116.839C134.562 116.739 138.177 114.17 138.177 110.277V103.593C138.175 101.767 137.456 100.014 136.177 98.7137C134.897 97.4129 133.159 96.6678 131.336 96.6388V96.6388Z" fill="#EF6C7F"/>
</svg>
