<svg xmlns="http://www.w3.org/2000/svg" width="588" height="243" fill="none" viewBox="0 0 588 243">
    <path fill="#F2F2F2" d="M428.433 71.277l-36.115-21.692v167.743h36.115V71.278zM336.909 217.328h36.115V37.996l-36.115-21.693v201.025zM447.729 82.866v134.462h18.8l50.957-92.563-69.757-41.899z"/>
    <path fill="#3F3D56" d="M517.888 153.157c-29.971 21.831-38.421 60.185-38.421 60.185s40.141 2.959 70.112-18.872C579.549 172.639 588 134.285 588 134.285s-40.142-2.959-70.112 18.872z"/>
    <path fill="#C9E4E7" d="M479.489 212.972s-.44-.239-1.236-.716c-.635-.38-1.506-.911-2.559-1.589-9.418-6.047-33.816-23.834-43.823-51.278-12.519-34.361 2.264-70.848 2.264-70.848s32.25 17.667 45.949 49.4c.597 1.367 1.149 2.761 1.669 4.183 10.894 29.897 1.117 61.403-1.606 69.083-.41 1.15-.658 1.765-.658 1.765z"/>
    <path fill="#3F3D56" d="M479.636 214.056l-.459-.324c-.328-.231-32.855-23.518-41.213-58.815-8.358-35.297 10.409-70.118 10.6-70.465l.267-.488.459.325c.328.23 32.856 23.517 41.214 58.814 8.358 35.298-10.41 70.118-10.601 70.466l-.267.487zM449.174 85.408c-2.256 4.386-17.975 36.654-10.246 69.293 7.728 32.639 36.367 54.932 40.366 57.911 2.256-4.385 17.974-36.653 10.245-69.292-7.728-32.639-36.366-54.932-40.365-57.911z"/>
    <path fill="#000" d="M480.148 211.207c-.73.415-1.369.764-1.893 1.049-1.156.615-1.796.925-1.796.925s-.304-.889-.764-2.514c-2.537-8.892-9.802-39.884 2.356-68.349.64-1.491 1.318-2.95 2.034-4.377.597 1.367 1.15 2.761 1.67 4.183 10.894 29.897 1.116 61.403-1.607 69.083z" opacity=".1"/>
    <path fill="#C9E4E7" d="M530.397 163.372c-14.373 33.666-50.459 51.051-50.459 51.051s-12.784-37.197 1.589-70.863c14.373-33.666 50.459-51.051 50.459-51.051s12.784 37.198-1.589 70.863z"/>
    <path fill="#3F3D56" d="M531.257 93.808l-51.423 119.455.912.373 51.423-119.455-.912-.373z"/>
    <path fill="#3F3D56" d="M582.542 224.314c0 4.515-26.65 8.645-70.712 11.814-8.011.575-16.599 1.117-25.703 1.629-7.871.44-16.118.854-24.741 1.242-8.357.37-17.033.713-26.029 1.031-28.415 1.006-59.823 1.73-93.191 2.092-8.097.086-16.303.155-24.62.204-8.658.048-17.417.071-26.275.071C130.405 242.397 0 234.304 0 224.314c0-9.989 130.405-18.083 291.271-18.083 69.253 0 132.857 1.503 182.844 4.004 1.84.094 3.661.186 5.464.275.011.007.023.009.036.008 62.966 3.319 102.927 8.267 102.927 13.796z"/>
    <path fill="#000" d="M582.542 224.314c0 4.515-26.65 8.645-70.712 11.814-8.011.575-16.599 1.117-25.703 1.629-7.871.44-16.118.854-24.741 1.242-8.357.37-17.033.713-26.029 1.031-28.415 1.006-59.823 1.73-93.191 2.092-8.097.086-16.303.155-24.62.204-8.658.048-17.417.071-26.275.071C130.405 242.397 0 234.304 0 224.314c0-9.989 130.405-18.083 291.271-18.083 69.253 0 132.857 1.503 182.844 4.004 1.84.094 3.661.186 5.464.275.011.007.023.009.036.008 62.966 3.319 102.927 8.267 102.927 13.796z" opacity=".15"/>
    <path fill="#3F3D56" d="M560.155 221.132c0 3.775-24.845 7.227-65.923 9.878-7.465.478-15.475.931-23.959 1.36-7.337.366-15.025.712-23.064 1.036-7.792.314-15.881.601-24.267.863-26.493.844-55.775 1.447-86.884 1.75-7.545.073-15.195.129-22.95.169-8.074.043-16.239.064-24.494.063-149.972 0-271.547-6.769-271.547-15.119s121.575-15.119 271.547-15.119c33.161 0 64.933.333 94.31.94h.074c27.784.574 53.425 1.394 76.074 2.411l5.096.227c.01.007.022.011.034.009 10.375.492 20.081 1.022 29.026 1.591.099.005.198.015.297.019 41.503 2.657 66.63 6.123 66.63 9.922z"/>
    <path fill="#000" d="M493.229 211.191c-3.675 23.29-26.853 15.485-54.9 15.485-29.629 0-53.821 8.711-55.33-19.722 27.784.573 53.426 1.393 76.074 2.41l5.096.227c.01.007.022.011.035.009 10.374.492 20.081 1.022 29.025 1.591z" opacity=".1"/>
    <path fill="#C9E4E7" d="M156.965 204.106c0 8.396-5.121 11.328-11.44 11.328-.147 0-.293-.002-.438-.005-.293-.006-.584-.02-.87-.039-5.703-.393-10.133-3.476-10.133-11.284 0-8.08 10.595-18.276 11.393-19.033l.001-.001.047-.044s11.44 10.682 11.44 19.078z"/>
    <path fill="#3F3D56" d="M145.107 214.149l4.185-5.697-4.195 6.323-.011.654c-.293-.006-.583-.02-.87-.039l.451-8.4-.003-.066.007-.011.043-.794-4.205-6.338 4.218 5.743.011.168.34-6.346-3.6-6.55 3.644 5.436.355-13.159.001-.045v.044l-.059 10.376 3.584-4.113-3.599 5.007-.095 5.683 3.348-5.454-3.361 6.29-.053 3.159 4.857-7.591-4.876 8.693-.117 7.027zM382.919 198.234c0-31.951 24.808-57.852 55.409-57.852 30.602 0 55.41 25.901 55.41 57.852 0 31.951-24.808 22.659-55.41 22.659-30.601 0-55.409 9.292-55.409-22.659zM75.884 160.118h-.99v65.17h.99v-65.17z"/>
    <path fill="#3F3D56" d="M75.39 169.334c5.222 0 9.457-4.126 9.457-9.215 0-5.09-4.235-9.216-9.458-9.216s-9.457 4.126-9.457 9.216c0 5.089 4.234 9.215 9.457 9.215zM75.389 200.284s-1.352-28.317-29.048-25.025l29.048 25.025z"/>
    <path fill="url(#paint0_linear)" d="M350.769 170.841c.247.851.522 1.696.817 2.535-1.321-1.265-2.617-2.565-3.938-3.822.53.161 1.058.321 1.558.512.544.211 1.068.47 1.563.775zm-6.398-4.225c-7.784-6.596-16.804-11.703-24.782-18.097 4.356 2.088 8.594 4.522 12.797 6.855 4.986 2.768 10.032 5.429 15.136 7.981-.832 1.27-1.9 2.376-3.151 3.261zm3.33-16.609l.373-.373c.003.937.011 1.814.022 2.609-.697-.225-1.393-.457-2.087-.694.597-.479 1.162-.994 1.692-1.542zm-68.572 17.857c3.208-3.531 5.995-7.405 8.307-11.547 3.09 5.261 8.112 9.055 12.384 13.461-6.883-.885-13.776-1.615-20.691-1.914z"/>
    <path fill="#C9E4E7" d="M58.02 216.64c0 8.397-5.122 11.329-11.44 11.329-.147 0-.293-.003-.439-.006-.292-.006-.583-.019-.87-.039-5.702-.393-10.132-3.475-10.132-11.284 0-8.079 10.595-18.276 11.393-19.032l.001-.001.046-.044S58.02 208.245 58.02 216.64z"/>
    <path fill="#3F3D56" d="M46.162 226.684l4.184-5.697-4.195 6.322-.01.654c-.293-.006-.584-.019-.87-.039l.45-8.399-.002-.066.007-.011.043-.795-4.206-6.338 4.219 5.743.01.169.34-6.347-3.6-6.549 3.645 5.436.355-13.159v-.045.044l-.058 10.376 3.584-4.114-3.6 5.008-.094 5.682 3.348-5.453-3.362 6.289-.052 3.16 4.857-7.591-4.876 8.693-.117 7.027z"/>
    <path fill="#C9E4E7" d="M63.82 149.835c2.732 0 4.947-2.159 4.947-4.821 0-2.663-2.215-4.821-4.948-4.821-2.732 0-4.947 2.158-4.947 4.821 0 2.662 2.215 4.821 4.947 4.821z"/>
    <path fill="#2F2E41" d="M381.924 77.535s17.947-3.872 19.926 11.555c1.979 15.427-9.531 18.339-9.531 18.339l-7.289 1.909-28.2-7.231 3.958-11.088 21.136-13.484z"/>
    <path fill="#2F2E41" d="M375.456 78.386c13.395 0 24.254-10.581 24.254-23.634 0-13.052-10.859-23.634-24.254-23.634-13.394 0-24.253 10.582-24.253 23.634 0 13.053 10.859 23.634 24.253 23.634zM290.232 103.829l4.928.966 16.755 24.141-7.392.966-14.291-26.073z"/>
    <path fill="#FBBEBE" d="M171.038 201.78c1.329 4.261 2.965 8.425 4.897 12.461 5.554-1.133 11.018-2.65 16.35-4.54.164-.058-3.058-4.165-3.397-4.501-1.276-1.265-2.929-2.745-4.617-3.46-1.702-.722-3.798-.171-5.62-.08-2.535.126-5.073.166-7.613.12z"/>
    <path fill="#2F2E41" d="M184.3 208.229c-2.778-.847-4.466-3.571-5.595-6.197-1.13-2.627-2.041-5.491-4.184-7.418-.821.038-1.483.688-1.889 1.388-.406.7-.648 1.49-1.117 2.151-.894 1.258-2.465 1.866-3.588 2.933-1.178 1.119-1.822 2.702-3.041 3.777-1.532 1.351-3.697 1.686-5.706 2.133-3.108.691-6.11 1.776-8.929 3.226-1.039.61-2.15 1.095-3.308 1.444-1.275.239-2.58.281-3.868.126l-8.884-.617c-.791-.099-1.593-.065-2.372.101-1.826.5-2.96 2.486-2.826 4.339.134 1.854 1.317 3.514 2.812 4.658 1.546 1.079 3.252 1.921 5.059 2.498 7.739 2.847 15.706 5.065 23.82 6.631l.005 1.713c5.642 2.704 11.845 4.111 18.132 4.115.465.034.932-.045 1.358-.23.623-.329.912-1.039 1.142-1.696 2.132-6.073 3.379-12.408 3.706-18.82.157-1.625.028-3.265-.383-4.847-.484-1.559 1.182-.904-.359-1.514"/>
    <path fill="#2F2E41" d="M354.687 175.593c-26.339 1.537-52.372-5.976-78.745-6.779-3.279-.1-6.593-.092-9.795.608-3.386.741-6.544 2.235-9.693 3.663-14.145 6.413-28.778 11.725-43.393 17.029l-16.789 6.094c-3.355 1.218-6.831 2.454-10.402 2.241-1.601-.095-3.566-.331-4.467.969-2.731 3.943-1.44 9.736.364 14.162.586 1.436 1.577 2.986 3.147 3.149 1.105.115 2.132-.508 3.206-.788 3.056-.798 6.103 1.205 9.248 1.531 3.885.403 7.493-1.754 11.161-3.074 6.082-2.191 12.733-2.122 19.126-3.16 10.72-1.739 20.656-6.59 29.943-12.116 3.537-2.105 7.116-4.359 11.178-5.129 4.672-.885 9.47.288 14.05 1.551 10.921 3.011 21.673 6.579 32.21 10.688 5.548 2.164 11.057 4.484 16.83 5.98 12.487 3.204 25.697 2.453 37.717-2.143 4.216-1.623 8.797-4.494 9.039-8.926.138-2.527-1.874-4.754-3.218-6.915-.862-1.386-1.724-2.772-2.663-4.109-4.541-6.471-10.053-14.993-18.054-14.526z"/>
    <path fill="#000" d="M354.687 175.593c-26.339 1.537-52.372-5.976-78.745-6.779-3.279-.1-6.593-.092-9.795.608-3.386.741-6.544 2.235-9.693 3.663-14.145 6.413-28.778 11.725-43.393 17.029l-16.789 6.094c-3.355 1.218-6.831 2.454-10.402 2.241-1.601-.095-3.566-.331-4.467.969-2.731 3.943-1.44 9.736.364 14.162.586 1.436 1.577 2.986 3.147 3.149 1.105.115 2.132-.508 3.206-.788 3.056-.798 6.103 1.205 9.248 1.531 3.885.403 7.493-1.754 11.161-3.074 6.082-2.191 12.733-2.122 19.126-3.16 10.72-1.739 20.656-6.59 29.943-12.116 3.537-2.105 7.116-4.359 11.178-5.129 4.672-.885 9.47.288 14.05 1.551 10.921 3.011 21.673 6.579 32.21 10.688 5.548 2.164 11.057 4.484 16.83 5.98 12.487 3.204 25.697 2.453 37.717-2.143 4.216-1.623 8.797-4.494 9.039-8.926.138-2.527-1.874-4.754-3.218-6.915-.862-1.386-1.724-2.772-2.663-4.109-4.541-6.471-10.053-14.993-18.054-14.526z" opacity=".1"/>
    <path fill="#FBBEBE" d="M221.608 203.029c4.123 1.371 8.283 2.632 12.478 3.782 2.348-3.757 6.741-6.372 7.742-10.667.062-.187.063-.388.001-.575-.107-.184-.273-.329-.472-.412-3.005-1.623-6.342-2.575-9.77-2.79-2.707-.167-3.943 2.588-5.17 4.524-.497.784-3.705 6.505-4.809 6.138z"/>
    <path fill="#2F2E41" d="M227.388 200.287c-2.435-.498-4.818-1.773-6.061-3.884-.582-.989-1.202-2.322-2.365-2.247-1.079.069-1.575 1.324-1.818 2.357-.91 3.867-1.804 7.766-3.4 11.413-1.597 3.648-3.959 7.072-7.29 9.33-1.528 1.036-3.231 1.809-4.725 2.892-1.341.973-2.511 2.193-3.993 2.945-.992.443-2.016.815-3.063 1.113-1.541.523-3.014 1.221-4.387 2.081-1.207.683-2.231 1.636-2.987 2.781-.371.577-.588 1.235-.631 1.915-.043.68.09 1.359.385 1.977.318.508.744.944 1.247 1.281.504.336 1.076.564 1.677.67 1.2.201 2.424.231 3.634.088 4.802-.344 9.599-.761 14.395-1.178 2.029-.127 4.046-.4 6.034-.817 1.051-.247 2.08-.574 3.127-.837 1.794-.451 3.633-.712 5.484-.779.538-.044 1.08.004 1.6.143 1.112.353 1.9 1.431 3.047 1.649.736.069 1.478-.028 2.169-.282 3.456-.921 7.088-.896 10.664-1.084 1.575-.083 3.42-.375 4.143-1.749.901-1.714-.594-3.631-1.189-5.469-.298-1.174-.463-2.376-.495-3.585-.274-2.989-1.174-5.89-2.645-8.526-1.222-2.188-2.891-4.606-2.032-6.954.291-.796.871-1.538.814-2.382-.254-3.709-9.131-2.411-11.339-2.862z"/>
    <path fill="#FBBEBE" d="M315.188 134.416c-4.668-2.004-8.407-5.624-10.495-10.158-.44-.975-.801-1.993-1.225-2.976-1.381-3.269-3.529-6.176-6.272-8.488-.686-.567-1.491-1.108-2.329-.96-.804.142-1.436.917-1.712 1.787-.236.895-.295 1.826-.174 2.742.234 2.161.616 4.304 1.141 6.416l1.277 5.667c.158.872.425 1.722.794 2.53.551.954 1.277 1.801 2.143 2.498 1.166 1.047 2.351 2.065 3.555 3.056 1.672 1.564 3.852 2.509 6.164 2.671 5.23.945 10.55 2.307 14.964 5.633-.049-.037-.019-3.802-.095-4.233-.202-1.141-.359-2.27-1.121-3.041-1.711-1.732-4.531-2.241-6.615-3.144z"/>
    <path fill="#000" d="M315.188 134.416c-4.668-2.004-8.407-5.624-10.495-10.158-.44-.975-.801-1.993-1.225-2.976-1.381-3.269-3.529-6.176-6.272-8.488-.686-.567-1.491-1.108-2.329-.96-.804.142-1.436.917-1.712 1.787-.236.895-.295 1.826-.174 2.742.234 2.161.616 4.304 1.141 6.416l1.277 5.667c.158.872.425 1.722.794 2.53.551.954 1.277 1.801 2.143 2.498 1.166 1.047 2.351 2.065 3.555 3.056 1.672 1.564 3.852 2.509 6.164 2.671 5.23.945 10.55 2.307 14.964 5.633-.049-.037-.019-3.802-.095-4.233-.202-1.141-.359-2.27-1.121-3.041-1.711-1.732-4.531-2.241-6.615-3.144z" opacity=".1"/>
    <path fill="#2F2E41" d="M368.83 91.033c3.538 0 6.406-2.81 6.406-6.276 0-3.467-2.868-6.277-6.406-6.277s-6.406 2.81-6.406 6.277c0 3.466 2.868 6.276 6.406 6.276z"/>
    <path fill="#2F2E41" d="M364.865 80.964c-1.739-.188-3.671-.327-5.064.71-.739.637-1.33 1.42-1.733 2.299-1.339 2.45-2.66 4.947-3.334 7.647-.572 2.291-.667 4.687-1.375 6.941-1.313 4.182-4.679 7.711-5.064 12.07-.172 1.95.163 4.234-1.297 5.57-.361.296-.746.562-1.151.796-1.013.661-1.872 1.522-2.522 2.527-.546.846-.967 1.818-1.79 2.413-1.303.94-3.466.845-4.108 2.3-.66 1.496 1.015 3.161.627 4.745-.316 1.291-1.792 1.882-2.809 2.759-1.303 1.123-1.898 2.818-2.441 4.433-2.143.395-4.349.334-6.465-.18-2.116-.515-4.093-1.469-5.794-2.799 1.788 4.292 1.827 9.029 1.905 13.664.025 1.504-.023 3.192-1.125 4.239 5.1.106 10.074 1.453 15.051 2.549 2.175.479 4.537.895 6.565-.012 1.138-.594 2.157-1.383 3.007-2.33 2.707-2.676 5.548-5.594 6.21-9.306.371-2.079.012-4.214.11-6.323.122-2.613.942-5.138 1.644-7.661 1.436-5.166 2.399-10.446 2.877-15.777.294-3.29 3.211-5.938 4.746-8.879 2.898-5.55 5.859-11.332 6.078-17.563.073-2.084-.633-4.603-2.748-4.832z"/>
    <path fill="#000" d="M364.865 80.964c-1.739-.188-3.671-.327-5.064.71-.739.637-1.33 1.42-1.733 2.299-1.339 2.45-2.66 4.947-3.334 7.647-.572 2.291-.667 4.687-1.375 6.941-1.313 4.182-4.679 7.711-5.064 12.07-.172 1.95.163 4.234-1.297 5.57-.361.296-.746.562-1.151.796-1.013.661-1.872 1.522-2.522 2.527-.546.846-.967 1.818-1.79 2.413-1.303.94-3.466.845-4.108 2.3-.66 1.496 1.015 3.161.627 4.745-.316 1.291-1.792 1.882-2.809 2.759-1.303 1.123-1.898 2.818-2.441 4.433-2.143.395-4.349.334-6.465-.18-2.116-.515-4.093-1.469-5.794-2.799 1.788 4.292 1.827 9.029 1.905 13.664.025 1.504-.023 3.192-1.125 4.239 5.1.106 10.074 1.453 15.051 2.549 2.175.479 4.537.895 6.565-.012 1.138-.594 2.157-1.383 3.007-2.33 2.707-2.676 5.548-5.594 6.21-9.306.371-2.079.012-4.214.11-6.323.122-2.613.942-5.138 1.644-7.661 1.436-5.166 2.399-10.446 2.877-15.777.294-3.29 3.211-5.938 4.746-8.879 2.898-5.55 5.859-11.332 6.078-17.563.073-2.084-.633-4.603-2.748-4.832z" opacity=".1"/>
    <path fill="#2F2E41" d="M358.864 180.999c-5.485-2.543-9.499-7.286-13.935-11.345-8.467-7.748-18.822-13.233-27.725-20.497-5.902-4.815-11.179-10.422-17.664-14.453-5.712-3.544-12.186-5.755-18.919-6.46-.771-.128-1.562-.09-2.316.113-.851.367-1.592.938-2.154 1.66-2.873 3.159-5.426 6.581-7.625 10.218-11.285 18.667-27.313 34.363-40.593 51.724-.425.409-.676.957-.705 1.537-.03.58.165 1.15.546 1.597l2.701 5.159c1.512 2.886 3.934 6.249 7.193 5.675 1.489-.262 2.675-1.33 3.772-2.351l12.127-11.297 12.715-11.844c7.449-6.939 15.027-14.04 19.883-22.916 3.795 6.414 10.529 10.613 15.15 16.485 1.757 2.234 3.192 4.69 4.761 7.055 2.515 3.79 5.375 7.347 8.23 10.899l14.585 18.14c1.989 2.474 4.033 4.998 6.753 6.676 3.454 2.131 7.655 2.692 11.721 3.047 5.479.478 10.98.672 16.48.581 4.193-.07 8.518-.338 12.28-2.153 3.763-1.815 6.854-5.54 6.658-9.645-.101-2.135-1.054-4.137-2.102-6.011-5.21-9.314-12.018-17.051-21.817-21.594zM372.771 93.93c2.722 0 4.928-2.161 4.928-4.828 0-2.666-2.206-4.828-4.928-4.828-2.721 0-4.927 2.162-4.927 4.828 0 2.667 2.206 4.829 4.927 4.829z"/>
    <path fill="#FBBEBE" d="M371.682 85.474c1.201 2.067 1.202 4.64.541 6.928-.661 2.29-1.923 4.36-3.171 6.4-1.229 2.007-2.472 4.033-4.12 5.727 7.606.355 14.979-2.552 21.692-6.075 5.4-2.834 10.789-6.333 13.671-11.63-1.686.494-3.543.007-5.035-.906-1.449-.984-2.748-2.163-3.858-3.502l-3.819-4.186c-.897-.911-1.685-1.919-2.348-3.004-.827-1.484-1.178-3.175-1.008-4.855-1.518 1.547-3.213 2.918-5.053 4.086-2.728 1.73-5.734 2.984-8.468 4.704-.969.61-3.124 1.59-2.569 2.825.541 1.203 2.777 2.165 3.545 3.488z"/>
    <path fill="#000" d="M371.682 85.474c1.201 2.067 1.202 4.64.541 6.928-.661 2.29-1.923 4.36-3.171 6.4-1.229 2.007-2.472 4.033-4.12 5.727 7.606.355 14.979-2.552 21.692-6.075 5.4-2.834 10.789-6.333 13.671-11.63-1.686.494-3.543.007-5.035-.906-1.449-.984-2.748-2.163-3.858-3.502l-3.819-4.186c-.897-.911-1.685-1.919-2.348-3.004-.827-1.484-1.178-3.175-1.008-4.855-1.518 1.547-3.213 2.918-5.053 4.086-2.728 1.73-5.734 2.984-8.468 4.704-.969.61-3.124 1.59-2.569 2.825.541 1.203 2.777 2.165 3.545 3.488z" opacity=".1"/>
    <path fill="#C9E4E7" d="M371.787 86.205c-1.43 2.343-1.736 5.109 0 7.243.216.266 1.018 1.914 1.365 1.93.335-.028.646-.181.868-.428 1.847-1.646 3.2-3.745 4.823-5.603 1.623-1.86 3.67-3.553 6.137-3.928 2.977-.451 5.852 1.086 8.458 2.57 1.083.616 2.205 1.269 2.887 2.298.549.966.873 2.039.948 3.14.9 6.608.881 13.299.859 19.965-.015 4.819-.034 9.671-.969 14.402-.484 2.445-1.21 4.845-1.553 7.313-.252 2.178-.355 4.37-.306 6.561l-.008 9.174c-.062 1.685.06 3.372.366 5.031.447 2.01 1.423 3.866 2.075 5.822.673 2.247 1.133 4.551 1.376 6.88l1.288 9.5c.406 2.992.706 6.265-1.151 8.673-.839 1.089-1.942 1.96-2.793 3.04-3.187 4.045-2.164 9.815-3.494 14.756-1.049 3.618-3.205 6.839-6.181 9.233-2.277 1.885-5.218 3.369-8.15 2.838-3.959-.716-6.336-4.738-7.415-8.538-1.079-3.8-1.473-7.936-3.811-11.146-1.909-2.621-4.868-4.27-7.542-6.141-2.675-1.872-5.289-4.284-5.871-7.453-.254-1.385-.096-2.81-.247-4.209-.213-1.772-.91-3.456-2.019-4.876-1.11-1.419-2.59-2.522-4.287-3.193-2.026-.768-4.529-1.042-5.669-2.854 2.946-1.618 4.901-4.608 5.932-7.759 1.03-3.152 1.24-6.495 1.442-9.799l.677-11.039c.303-4.933.44-9.822 2.67-14.256.996-1.981 2.236-3.837 3.274-5.798 1.372-2.752 2.544-5.595 3.507-8.508 1.616-4.523 3.233-9.048 4.674-13.628.686-2.182 1.346-4.406 2.569-6.35 1.224-1.943 2.98-4.443 5.271-4.863z"/>
    <path fill="#2F2E41" d="M346.631 157.922l2.996.106.639-4.415c.084-.883.298-1.75.635-2.573.494-.871 1.071-1.695 1.723-2.461 2.95-4.062 2.735-9.455 3.466-14.388.975-6.581 3.796-12.741 6.586-18.803l5.819-12.638c1.161-2.146 1.716-4.553 1.609-6.977.052-1.953.646-9.063.697-11.016.019-.723-1.636-.322-1.971-.966-.73-1.403-1.728 2.402-3.091 3.237-1.363.835-2.115 2.347-2.694 3.817-1.254 3.183-2.02 6.532-3.189 9.747-1.168 3.214-2.803 6.373-5.432 8.611-1.195 1.018-2.571 1.824-3.699 2.912-3.621 3.488-3.973 8.997-4.1 13.971-.076 2.957-.663 31.836.006 31.836zM389.785 80.934c-2.911 1.116-4.508 4.193-5.326 7.149-.818 2.956-1.151 6.107-2.715 8.76-3.656 6.2-12.976 8.006-15.556 14.706-.844 2.192-.807 4.597-1.034 6.93-.468 4.8-2.088 9.438-2.567 14.238-.371 3.718-.05 7.465.27 11.188l3.257 37.861c.471 5.469.459 11.344-.975 16.65 3.298.626 6.727-.213 9.787-1.572 3.06-1.36 5.853-3.226 8.798-4.809 5.064-2.723 10.65-4.652 15.085-8.279.802-.609 1.49-1.35 2.032-2.189.889-1.497.961-3.308 1.384-4.989.384-1.342.872-2.653 1.46-3.922 1.624-3.815 3.038-7.712 4.238-11.673.824-2.629 1.475-5.306 1.949-8.016.355-2.158.547-4.339.739-6.517.236-3.409.932-6.774 2.068-10.007 2.833-7.711 4.438-15.799 4.758-23.983.096-1.182.013-2.371-.245-3.53-.386-1.437-1.257-2.694-1.971-4.005-1.354-2.485-2.167-5.22-3.444-7.743-2.887-5.701-7.986-10.025-13.326-13.648-2.623-1.78-5.694-3.738-8.666-2.6z"/>
    <path fill="#FBBEBE" d="M321.679 142.701c-2.255-1.28-4.508-2.657-6.205-4.594-.813-.928-1.484-1.97-2.31-2.886-2.011-2.229-4.859-3.612-7.804-4.334-2.945-.723-6.008-.833-9.044-.858-2.031-.016-4.112.012-6.013.712-1.902.699-3.616 2.208-3.984 4.165-.442 2.355 1.137 4.649 3.033 6.16 1.763 1.403 3.839 2.385 6.061 2.867 1.813.31 3.642.519 5.479.626 10.787 1.101 20.411 6.822 29.863 12.032 8.302 4.575 16.766 8.852 25.39 12.832.342-2.517.485-5.056.426-7.594-.044-1.896-.14-4.786-1.978-5.899-2.141-1.297-5.666-1.595-8.081-2.366-5.558-1.776-10.986-3.915-16.248-6.405-2.917-1.38-5.779-2.866-8.585-4.458zM368.831 83.308c10.614 0 19.218-8.43 19.218-18.83 0-10.4-8.604-18.831-19.218-18.831s-19.219 8.43-19.219 18.83c0 10.4 8.605 18.831 19.219 18.831z"/>
    <path fill="#2F2E41" d="M395.28 102.284c-1.717 1.951-2.576 4.463-3.729 6.777-2.373 4.762-6.095 8.849-7.959 13.824-1.967 5.248-1.901 11.491-5.755 15.613-.67.717-1.479 1.409-1.673 2.362-.115.566.004 1.172-.196 1.714-.552 1.498-3.068 1.574-3.538 3.098-.137.446-.06.94-.23 1.375-.385.986-1.722 1.137-2.615 1.727-1.865 1.233-1.489 4.101-2.82 5.878-1.054 1.406-3.039 1.878-4.803 1.639-1.763-.238-3.378-1.061-4.984-1.814-.552-.302-1.163-.489-1.793-.548-.745.025-1.465.264-2.07.689-3.55 2.199-5.216 6.556-5.192 10.671.025 4.116 1.476 8.081 2.962 11.93.203.65.536 1.254.979 1.778 1.177 1.213 3.227 1.017 4.79.342 1.564-.675 2.983-1.736 4.665-2.033 2.973-.525 5.88 1.466 8.897 1.302 2.21-.12 4.166-1.372 6.002-2.583 2.932-1.934 5.917-3.916 8.072-6.66 1.319-1.68 2.286-3.596 3.436-5.391 1.48-2.204 3.101-4.314 4.854-6.317l11.082-13.218c2.662-2.825 4.496-6.296 5.307-10.049 1.054-3.523 2.115-7.086 2.297-10.753.15-3.018-.299-6.032-.805-9.013-.497-2.934-1.063-5.901-2.386-8.578-2.408-4.872-8.269-8.905-12.795-3.762zM401.732 47.268c13.394 0 24.253-10.581 24.253-23.634S415.126 0 401.732 0c-13.395 0-24.253 10.581-24.253 23.634s10.858 23.634 24.253 23.634z"/>
    <path fill="#2F2E41" d="M422.651 43.205c-3.139 2.21-6.776 3.657-10.607 4.217-3.83.56-7.742.22-11.409-.996-3.667-1.215-6.982-3.268-9.668-5.988-2.686-2.719-4.664-6.026-5.77-9.643.419 3.242 1.522 6.364 3.241 9.169 1.719 2.805 4.016 5.232 6.746 7.129 2.731 1.896 5.835 3.22 9.117 3.889 3.282.668 6.67.666 9.951-.006 3.281-.672 6.384-2 9.112-3.9 2.728-1.9 5.022-4.33 6.737-7.136 1.716-2.807 2.816-5.93 3.23-9.173.414-3.242.134-6.533-.822-9.664.543 4.207-.085 8.479-1.82 12.368-1.735 3.889-4.511 7.25-8.038 9.734z"/>
    <path fill="#2F2E41" d="M381.924 76.023c9.823 0 17.786-7.76 17.786-17.332 0-9.572-7.963-17.331-17.786-17.331-9.822 0-17.785 7.76-17.785 17.331 0 9.572 7.963 17.332 17.785 17.332z"/>
    <path fill="#2F2E41" d="M366.968 64.206c8.706 0 15.764-5.379 15.764-12.014s-7.058-12.014-15.764-12.014c-8.707 0-15.765 5.379-15.765 12.014s7.058 12.014 15.765 12.014z"/>
    <path fill="#FBBEBE" d="M373.023 73.817c1.06-.84.871-2.777-.422-4.326-1.293-1.55-3.2-2.124-4.26-1.284-1.06.84-.871 2.776.422 4.326 1.293 1.549 3.2 2.124 4.26 1.284z"/>
    <path fill="#C9E4E7" d="M353.373 224.354c0 8.396-5.122 11.328-11.441 11.328-.146 0-.293-.002-.438-.005-.293-.006-.583-.02-.87-.039-5.703-.393-10.133-3.476-10.133-11.284 0-8.08 10.595-18.276 11.394-19.032l.001-.001.046-.044s11.441 10.681 11.441 19.077z"/>
    <path fill="#3F3D56" d="M341.514 234.397l4.185-5.696-4.195 6.322-.011.654c-.292-.006-.583-.019-.869-.039l.45-8.4-.003-.065.007-.012.044-.794-4.206-6.338 4.218 5.743.011.168.34-6.346-3.6-6.55 3.644 5.437.355-13.159.001-.045v.044l-.059 10.376 3.584-4.114-3.599 5.007-.094 5.683 3.347-5.454-3.361 6.29-.053 3.16 4.858-7.591-4.877 8.693-.117 7.026z"/>
    <defs>
        <linearGradient id="paint0_linear" x1="315.357" x2="315.357" y1="173.376" y2="148.519" gradientUnits="userSpaceOnUse">
            <stop stop-color="gray" stop-opacity=".25"/>
            <stop offset=".535" stop-color="gray" stop-opacity=".12"/>
            <stop offset="1" stop-color="gray" stop-opacity=".1"/>
        </linearGradient>
    </defs>
</svg>
